<svg width="835" height="434" viewBox="0 0 835 434" fill="none" xmlns="http://www.w3.org/2000/svg">
<g clip-path="url(#clip0_1932_60043)">
<rect width="835" height="434" fill="white"/>
<g opacity="0.6">
<path d="M146.402 416.199L173.832 428.412C180.006 431.161 186.891 431.884 193.501 430.479L225.786 423.617" stroke="#E8EBEB" stroke-width="2" stroke-linecap="round" stroke-linejoin="round"/>
<path d="M234 221.315L242.919 263.277C243.837 267.599 248.085 270.357 252.407 269.439L300.894 259.133" stroke="#E8EBEB" stroke-width="2" stroke-linecap="round" stroke-linejoin="round"/>
<path d="M150.48 128.852L292.041 158.941C296.362 159.86 300.61 157.101 301.529 152.779L307.875 122.925" stroke="#E8EBEB" stroke-width="2" stroke-linecap="round" stroke-linejoin="round"/>
<path d="M856.011 407.637L881.07 169.219C881.42 165.888 879.004 162.904 875.673 162.554L687.132 142.737" stroke="#E8EBEB" stroke-width="2" stroke-linecap="round" stroke-linejoin="round"/>
<path d="M484.964 70.8588L493.486 -10.2302C493.948 -14.6242 490.761 -18.5607 486.366 -19.0226L402.513 -27.8359" stroke="#E8EBEB" stroke-width="2" stroke-linecap="round" stroke-linejoin="round"/>
<path d="M506.759 21.9177L468.607 107.609C466.81 111.645 468.625 116.374 472.661 118.171L636.862 191.278" stroke="#E8EBEB" stroke-width="2" stroke-linecap="round" stroke-linejoin="round"/>
<path d="M830.087 615.7L887.579 486.57C889.409 482.459 887.56 477.641 883.448 475.811L785.199 432.067" stroke="#E8EBEB" stroke-width="2" stroke-linecap="round" stroke-linejoin="round"/>
<path d="M696.006 271.49L561.032 257.304C556.638 256.842 553.45 252.905 553.912 248.511L561.467 176.63" stroke="#E8EBEB" stroke-width="2" stroke-linecap="round" stroke-linejoin="round"/>
<path d="M561.141 280.504L520.797 289.08C516.475 289.998 513.717 294.246 514.635 298.568L572.409 570.371" stroke="#E8EBEB" stroke-width="2" stroke-linecap="round" stroke-linejoin="round"/>
<path d="M207.241 337.191L232.45 331.833C236.771 330.914 241.02 333.673 241.938 337.995L261.54 430.213" stroke="#E8EBEB" stroke-width="2" stroke-linecap="round" stroke-linejoin="round"/>
<path d="M91.365 66.9131L133.886 57.8749C138.208 56.9563 140.967 52.7082 140.048 48.3864L112.281 -82.2498" stroke="#E8EBEB" stroke-width="2" stroke-linecap="round" stroke-linejoin="round"/>
<path d="M185.653 329.586L161.148 318.676C157.111 316.879 152.382 318.694 150.585 322.73L110.552 412.647" stroke="#E8EBEB" stroke-width="2" stroke-linecap="round" stroke-linejoin="round"/>
<path d="M459.177 205.963L440.637 209.904C436.316 210.823 433.557 215.071 434.475 219.392L447.772 281.95" stroke="#E8EBEB" stroke-width="2" stroke-linecap="round" stroke-linejoin="round"/>
<path d="M-9.07446 210.136L-28.5504 214.275C-32.8721 215.194 -35.6309 219.442 -34.7123 223.764L1.39999 393.659" stroke="#E8EBEB" stroke-width="2" stroke-linecap="round" stroke-linejoin="round"/>
<path d="M747.29 294.021L728.243 298.07C723.922 298.989 719.673 296.23 718.755 291.908L710.762 254.306" stroke="#E8EBEB" stroke-width="2" stroke-linecap="round" stroke-linejoin="round"/>
<path d="M744.918 214.145L792.974 106.208C794.771 102.171 792.956 97.4426 788.92 95.6455L750.183 78.399" stroke="#E8EBEB" stroke-width="2" stroke-linecap="round" stroke-linejoin="round"/>
<path d="M675.175 168.572L717.834 72.7581C719.631 68.7218 724.36 66.9066 728.396 68.7036L750.109 78.3709" stroke="#E8EBEB" stroke-width="2" stroke-linecap="round" stroke-linejoin="round"/>
<path d="M795.928 256.477L809.806 321.768C810.725 326.09 807.966 330.338 803.644 331.257L719.69 349.102" stroke="#E8EBEB" stroke-width="2" stroke-linecap="round" stroke-linejoin="round"/>
<path d="M493.08 -1.68823L507.331 -0.190416" stroke="#E8EBEB" stroke-width="2" stroke-linecap="round" stroke-linejoin="round"/>
<path d="M562.635 286.481L560.196 275.007" stroke="#E8EBEB" stroke-width="2" stroke-linecap="round" stroke-linejoin="round"/>
<path d="M442.265 283.884L453.739 281.445" stroke="#E8EBEB" stroke-width="2" stroke-linecap="round" stroke-linejoin="round"/>
<path d="M789.842 257.577L801.316 255.138" stroke="#E8EBEB" stroke-width="2" stroke-linecap="round" stroke-linejoin="round"/>
<path d="M302.784 264L300.345 252.525" stroke="#E8EBEB" stroke-width="2" stroke-linecap="round" stroke-linejoin="round"/>
<path d="M41.6029 377.841L47.8024 407.008C48.721 411.33 52.9692 414.088 57.2909 413.17L89.222 406.383" stroke="#E8EBEB" stroke-width="2" stroke-linecap="round" stroke-linejoin="round"/>
<path d="M91.112 411.25L88.6731 399.775" stroke="#E8EBEB" stroke-width="2" stroke-linecap="round" stroke-linejoin="round"/>
<path d="M623.388 349.011L636.92 346.134" stroke="#E8EBEB" stroke-width="2" stroke-linecap="round" stroke-linejoin="round"/>
<path d="M494.043 445.688L489.637 424.957" stroke="#E8EBEB" stroke-width="2" stroke-linecap="round" stroke-linejoin="round"/>
<path d="M370.857 385.158L367.154 367.737" stroke="#E8EBEB" stroke-width="2" stroke-linecap="round" stroke-linejoin="round"/>
<path d="M65.0101 372.264L48.1787 293.078" stroke="#E8EBEB" stroke-width="2" stroke-linecap="round" stroke-linejoin="round"/>
<path d="M352.946 402.484L350.421 390.605" stroke="#E8EBEB" stroke-width="2" stroke-linecap="round" stroke-linejoin="round"/>
<path d="M482.572 425.935L539.068 413.926" stroke="#E8EBEB" stroke-width="2" stroke-linecap="round" stroke-linejoin="round"/>
<path d="M388.683 344.855L484.132 324.566" stroke="#E8EBEB" stroke-width="2" stroke-linecap="round" stroke-linejoin="round"/>
<path d="M246.599 357.277L295.604 346.861" stroke="#E8EBEB" stroke-width="2" stroke-linecap="round" stroke-linejoin="round"/>
<path d="M52.9086 312.071L114.595 298.959" stroke="#E8EBEB" stroke-width="2" stroke-linecap="round" stroke-linejoin="round"/>
<path d="M242.237 398.955L272.802 392.458" stroke="#E8EBEB" stroke-width="2" stroke-linecap="round" stroke-linejoin="round"/>
<path d="M361.584 368.191L373.99 365.554" stroke="#E8EBEB" stroke-width="2" stroke-linecap="round" stroke-linejoin="round"/>
<path d="M344.34 404.936L356.746 402.299" stroke="#E8EBEB" stroke-width="2" stroke-linecap="round" stroke-linejoin="round"/>
<path d="M425.401 373.532L409.642 299.391" stroke="#E8EBEB" stroke-width="2" stroke-linecap="round" stroke-linejoin="round"/>
<path d="M59.897 20.859L80.8095 16.4139" stroke="#E8EBEB" stroke-width="2" stroke-linecap="round" stroke-linejoin="round"/>
<path d="M499.795 38.9379L557.12 64.4606" stroke="#E8EBEB" stroke-width="2" stroke-linecap="round" stroke-linejoin="round"/>
<path d="M356.733 249.187L470.864 261.191" stroke="#E8EBEB" stroke-width="2" stroke-linecap="round" stroke-linejoin="round"/>
<path d="M693.969 251.996L754.381 258.35" stroke="#E8EBEB" stroke-width="2" stroke-linecap="round" stroke-linejoin="round"/>
<path d="M142.241 198.728L226.502 236.244" stroke="#E8EBEB" stroke-width="2" stroke-linecap="round" stroke-linejoin="round"/>
<path d="M49.6646 71.2316L97.1961 92.394" stroke="#E8EBEB" stroke-width="2" stroke-linecap="round" stroke-linejoin="round"/>
<path d="M611.323 55.5408L663.374 78.7151" stroke="#E8EBEB" stroke-width="2" stroke-linecap="round" stroke-linejoin="round"/>
<path d="M577.647 121.788L607.829 135.225" stroke="#E8EBEB" stroke-width="2" stroke-linecap="round" stroke-linejoin="round"/>
<path d="M740.493 179.53L756.722 186.755" stroke="#E8EBEB" stroke-width="2" stroke-linecap="round" stroke-linejoin="round"/>
<path d="M612.663 263.584L630.373 346.906" stroke="#E8EBEB" stroke-width="2" stroke-linecap="round" stroke-linejoin="round"/>
<path d="M574.568 128.447L579.956 116.345" stroke="#E8EBEB" stroke-width="2" stroke-linecap="round" stroke-linejoin="round"/>
<path d="M737.414 186.189L742.802 174.087" stroke="#E8EBEB" stroke-width="2" stroke-linecap="round" stroke-linejoin="round"/>
<path d="M512.219 91.2155L529.529 52.3362" stroke="#E8EBEB" stroke-width="2" stroke-linecap="round" stroke-linejoin="round"/>
<path d="M591.961 171.329L623.757 99.9131" stroke="#E8EBEB" stroke-width="2" stroke-linecap="round" stroke-linejoin="round"/>
<path d="M618.53 520.384L629.324 417.683" stroke="#E8EBEB" stroke-width="2" stroke-linecap="round" stroke-linejoin="round"/>
<path d="M99.1298 101.518L236.87 72.2401" stroke="#E8EBEB" stroke-width="2" stroke-linecap="round" stroke-linejoin="round"/>
<path d="M259.023 54.9944L269.174 102.75" stroke="#E8EBEB" stroke-width="2" stroke-linecap="round" stroke-linejoin="round"/>
<path d="M210.254 141.804L193.354 221.313" stroke="#E8EBEB" stroke-width="2" stroke-linecap="round" stroke-linejoin="round"/>
<path d="M289 22.9993L293.574 44.5185" stroke="#E8EBEB" stroke-width="2" stroke-linecap="round" stroke-linejoin="round"/>
<path d="M293.613 76.5261L290.738 62.9993" stroke="#E8EBEB" stroke-width="2" stroke-linecap="round" stroke-linejoin="round"/>
<path d="M24.3251 102.096L11.6916 96.4715" stroke="#E8EBEB" stroke-width="2" stroke-linecap="round" stroke-linejoin="round"/>
<path d="M202.175 94.2743L199.3 80.7475" stroke="#E8EBEB" stroke-width="2" stroke-linecap="round" stroke-linejoin="round"/>
<path d="M188.363 82.0784L178.692 36.579" stroke="#E8EBEB" stroke-width="2" stroke-linecap="round" stroke-linejoin="round"/>
<path d="M136.892 93.1034L129.663 59.0921" stroke="#E8EBEB" stroke-width="2" stroke-linecap="round" stroke-linejoin="round"/>
<path d="M280.42 72.174L292.157 69.6791" stroke="#E8EBEB" stroke-width="2" stroke-linecap="round" stroke-linejoin="round"/>
<path d="M166.937 161.266L203.7 169.08" stroke="#E8EBEB" stroke-width="2" stroke-linecap="round" stroke-linejoin="round"/>
<path d="M199.324 193.985L226.043 199.665" stroke="#E8EBEB" stroke-width="2" stroke-linecap="round" stroke-linejoin="round"/>
<path d="M520.402 227.855L602.632 210.376" stroke="#E8EBEB" stroke-width="2" stroke-linecap="round" stroke-linejoin="round"/>
<path d="M586.831 426.387L721.775 397.704" stroke="#E8EBEB" stroke-width="2" stroke-linecap="round" stroke-linejoin="round"/>
<path d="M1.00716 0.0966797L-34.2423 7.52098" stroke="#E8EBEB" stroke-width="2" stroke-linecap="round" stroke-linejoin="round"/>
<path d="M382.237 119.378L379.371 105.891" stroke="#E8EBEB" stroke-width="2" stroke-linecap="round" stroke-linejoin="round"/>
<path d="M381.449 112.426L428.889 102.342" stroke="#E8EBEB" stroke-width="2" stroke-linecap="round" stroke-linejoin="round"/>
<path d="M-21.8475 139.492L33.7798 151.207" stroke="#E8EBEB" stroke-width="2"/>
<path d="M751.965 -106.394L707.535 30.3487" stroke="#E8EBEB" stroke-width="2" stroke-linecap="round" stroke-linejoin="round"/>
<path d="M793.854 59.0478L779.538 91.2014" stroke="#E8EBEB" stroke-width="2" stroke-linecap="round" stroke-linejoin="round"/>
<path d="M879.905 86.672L817.875 225.993" stroke="#E8EBEB" stroke-width="2" stroke-linecap="round" stroke-linejoin="round"/>
<path d="M-3.03088 374.708L-71.2727 367.891C-75.8594 367.433 -79.6235 364.062 -80.5822 359.553L-90.0871 314.855" stroke="#E8EBEB" stroke-width="2" stroke-linecap="round" stroke-linejoin="round"/>
<path d="M92.4072 193.959L129.659 369.215" stroke="#E8EBEB" stroke-width="2" stroke-linecap="round" stroke-linejoin="round"/>
<path d="M-5.30939 -30.0032L8.0823 32.9998" stroke="#E8EBEB" stroke-width="2" stroke-linecap="round" stroke-linejoin="round"/>
<path d="M102.29 172.195L136.195 175.759C140.589 176.221 143.777 180.157 143.315 184.551L132.871 283.919" stroke="#E8EBEB" stroke-width="2" stroke-linecap="round" stroke-linejoin="round"/>
<path d="M799.234 400.738L760.432 487.087" stroke="#E8EBEB" stroke-width="2"/>
<path d="M668.079 -87.7606L688.074 5.44727" stroke="#E8EBEB" stroke-width="2"/>
<path d="M677.812 406.748L698.185 501.624" stroke="#E8EBEB" stroke-width="2"/>
<path d="M18.2563 99.2833L-1.67725 143.642" stroke="#E8EBEB" stroke-width="2"/>
<path d="M858.751 26.869L744.061 -10.3961C740.847 -11.4402 738.047 -13.4749 736.061 -16.2084L706.545 -56.8339" stroke="#D1D7D7" stroke-width="3"/>
<path d="M81.7877 217.268L-61.8934 247.808C-65.1985 248.511 -68.6411 248.149 -71.7278 246.775L-128.186 221.638" stroke="#D1D7D7" stroke-width="3"/>
<path d="M462.82 219.553L514.351 224.701C517.814 225.047 520.656 227.593 521.38 230.997L538.499 311.5" stroke="#D1D7D7" stroke-width="3" stroke-linecap="round" stroke-linejoin="round"/>
<path d="M264.999 199L403.362 213.542" stroke="#D1D7D7" stroke-width="3" stroke-linecap="round" stroke-linejoin="round"/>
<path d="M801.167 584.769L821.084 397.016" stroke="#D1D7D7" stroke-width="3"/>
<path d="M376.797 295.774L411.591 459.468C412.05 461.629 414.174 463.008 416.335 462.549L579.373 427.894" stroke="#D1D7D7" stroke-width="3" stroke-linecap="round" stroke-linejoin="round"/>
<path d="M604.976 187L572.094 499.85" stroke="#D1D7D7" stroke-width="3" stroke-linecap="round" stroke-linejoin="round"/>
<path d="M473.108 -90.2767L186.116 37.5" stroke="#D1D7D7" stroke-width="3" stroke-linecap="round" stroke-linejoin="round"/>
<path d="M199.999 303L248.778 532.488" stroke="#D1D7D7" stroke-width="3" stroke-linecap="round" stroke-linejoin="round"/>
<path d="M546.999 91L736.354 110.72" stroke="#D1D7D7" stroke-width="3"/>
<path d="M316.999 366L334.999 207" stroke="#D1D7D7" stroke-width="3"/>
<path d="M321.499 396.451L588.999 340.11" stroke="#D1D7D7" stroke-width="3"/>
<path d="M227.999 437.341L310.999 419.86" stroke="#D1D7D7" stroke-width="3"/>
<path d="M447.999 154L492.342 360.5" stroke="#D1D7D7" stroke-width="3"/>
<path d="M257.497 170L118.667 478.946" stroke="#D1D7D7" stroke-width="3"/>
<path d="M630.23 -95L487.331 223" stroke="#D1D7D7" stroke-width="3"/>
<path d="M632.998 6.98615L592.998 96" stroke="#D1D7D7" stroke-width="3"/>
<path d="M57.0334 -47.3064L20.2559 34.5363" stroke="#D1D7D7" stroke-width="3"/>
<path d="M374.199 -152.2L255.669 -127.086C248.177 -125.498 241.892 -120.43 238.753 -113.444L172.999 32.8806" stroke="#D1D7D7" stroke-width="3"/>
<path d="M928.521 101.841L591.388 -7" stroke="#D1D7D7" stroke-width="3" stroke-linecap="round" stroke-linejoin="round"/>
<path d="M58.5366 268.899L288 317.222" stroke="#D1D7D7" stroke-width="3"/>
<path d="M297.999 361L333.999 368.581" stroke="#D1D7D7" stroke-width="3"/>
<path d="M456.999 62.9565L421.499 70.4336" stroke="#D1D7D7" stroke-width="3"/>
<path d="M728.18 415.875L815.999 397.378C818.884 396.771 821.876 396.923 824.684 397.819L915.68 426.873" stroke="#D1D7D7" stroke-width="3"/>
<path d="M905.918 260.655L737.942 296.067" stroke="#D1D7D7" stroke-width="3" stroke-linecap="round"/>
<path d="M694.215 203.92L801.574 -35.2413" stroke="#D1D7D7" stroke-width="3" stroke-linecap="round"/>
<path d="M839.686 274.66L794.797 174.66" stroke="#D1D7D7" stroke-width="3" stroke-linecap="round"/>
<path d="M-104.923 482.657L139.459 430.712" stroke="#D1D7D7" stroke-width="3" stroke-linecap="round" stroke-linejoin="round"/>
<path d="M115.446 435.096L102.274 373.128C101.355 368.806 97.1072 366.047 92.7854 366.966L6.40494 385.327" stroke="#D1D7D7" stroke-width="3" stroke-linecap="round" stroke-linejoin="round"/>
<path d="M274.481 51.8925L284.517 99.1077" stroke="#D1D7D7" stroke-width="3" stroke-linecap="round" stroke-linejoin="round"/>
<path d="M326.228 289.82L707.952 329.941" stroke="#D1D7D7" stroke-width="3"/>
<path d="M471.191 -61.7426L537.503 -54.7728C541.898 -54.311 545.085 -50.3745 544.623 -45.9804L537.145 25.1746" stroke="#D1D7D7" stroke-width="3" stroke-linecap="round" stroke-linejoin="round"/>
<path d="M-101.802 21.6637L44.9908 37.0922C49.3848 37.5541 52.5726 41.4905 52.1107 45.8846L33.0243 227.48" stroke="#D1D7D7" stroke-width="3" stroke-linecap="round" stroke-linejoin="round"/>
<path d="M232.961 53.0065L314.963 438.795" stroke="#D1D7D7" stroke-width="3" stroke-linecap="round" stroke-linejoin="round"/>
<path d="M-147.955 308.773L17.7951 326.034" stroke="#D1D7D7" stroke-width="3"/>
<path d="M-234.872 380.369C-157.805 354.68 -87.4925 366.317 90.869 466.7C269.1 567.05 381.94 341.36 665.336 373.582C955.712 418.172 978.139 211.041 978.139 211.041" stroke="white" stroke-width="21"/>
<path d="M-234.872 380.369C-157.805 354.68 -87.4925 366.317 90.869 466.7C269.1 567.05 381.94 341.36 665.336 373.582C955.712 418.172 978.139 211.041 978.139 211.041" stroke="#D1D7D7" stroke-width="12"/>
<path d="M-234.872 380.369C-157.805 354.68 -87.4925 366.317 90.869 466.7C269.1 567.05 381.94 341.36 665.336 373.582C955.712 418.172 978.139 211.041 978.139 211.041" stroke="white" stroke-width="3"/>
<rect x="305.668" y="441.378" width="18" height="32" rx="9" transform="rotate(-16 305.668 441.378)" stroke="#D1D7D7" stroke-width="4"/>
<path d="M324 441.5L372.5 426" stroke="#D1D7D7" stroke-width="3.07537" stroke-linecap="round" stroke-linejoin="round"/>
<path d="M331.5 460L374.5 434" stroke="#D1D7D7" stroke-width="3.07537" stroke-linecap="round" stroke-linejoin="round"/>
<g opacity="0.6">
<path opacity="0.7" fill-rule="evenodd" clip-rule="evenodd" d="M384.243 354.109L368.3 357.323L369.335 362.349L377.365 360.455L378.287 365.531L386.638 364.262L384.243 354.109Z" fill="#D1D7D7"/>
<path opacity="0.7" fill-rule="evenodd" clip-rule="evenodd" d="M418.835 321.586L421.546 333.546L433.492 330.735L433.916 322.834L418.835 321.586Z" fill="#D1D7D7"/>
<path opacity="0.7" fill-rule="evenodd" clip-rule="evenodd" d="M507.333 328.352L516.552 325.869L513.748 314.42L502.71 313.062L507.333 328.352Z" fill="#D1D7D7"/>
<path opacity="0.7" fill-rule="evenodd" clip-rule="evenodd" d="M587.534 312.708L571.918 310.932L572.677 302.941L582.261 303.913L583.187 298.277L589.025 295.75L587.534 312.708Z" fill="#D1D7D7"/>
<path opacity="0.7" d="M594.95 237.901L584.549 240.504L582.664 255.493L592.434 256.482L594.95 237.901Z" fill="#D1D7D7"/>
<path opacity="0.7" d="M562.762 214.242L574.757 211.079L577.544 187.059L566.241 184.608L562.762 214.242Z" fill="#D1D7D7"/>
<path opacity="0.7" fill-rule="evenodd" clip-rule="evenodd" d="M486.194 25.2326L485.111 35.2238L482.313 34.7414L482.41 31.2686L476.525 30.4004L476.911 24.2265L486.194 25.2326Z" fill="#D1D7D7"/>
<path opacity="0.7" fill-rule="evenodd" clip-rule="evenodd" d="M393.985 349.334L414.222 344.528L415.467 351.666L410.399 352.981L411.671 361.166L406.709 362.217L404.793 351.642L399.314 352.459L400.31 358.201L396.24 359.257L393.985 349.334Z" fill="#D1D7D7"/>
<path opacity="0.7" fill-rule="evenodd" clip-rule="evenodd" d="M391.38 301.843L383.286 301.825L388.581 325.847L395.979 325.344L391.38 301.843Z" fill="#D1D7D7"/>
<path opacity="0.7" fill-rule="evenodd" clip-rule="evenodd" d="M285.431 25.338L276 25.0002L277.67 35.0133H283.167L284.481 42.2133H288.315L285.431 25.338Z" fill="#D1D7D7"/>
<path opacity="0.7" fill-rule="evenodd" clip-rule="evenodd" d="M514.712 147.881L504.62 145.426L501.647 151.453L496.906 150.247L495.219 155.31L510.037 158.566L514.712 147.881Z" fill="#D1D7D7"/>
<path opacity="0.7" fill-rule="evenodd" clip-rule="evenodd" d="M424.427 207.832L419.99 205.583L421.258 202.765L417.173 200.371L408.721 218.543L412.806 220.374L414.637 217.98L418.115 219.735L424.427 207.832Z" fill="#D1D7D7"/>
<path opacity="0.7" d="M359.137 364.413L365.939 362.772L364.951 355.963L357.927 357.708L359.137 364.413Z" fill="#D1D7D7"/>
<path opacity="0.7" d="M450.308 306.841L443.404 306.153L442.93 312.563L449.825 313.125L450.308 306.841Z" fill="#D1D7D7"/>
<path opacity="0.7" d="M459.433 307.834L453.326 307.332L452.532 313.586L458.674 313.988L459.433 307.834Z" fill="#D1D7D7"/>
<path opacity="0.7" d="M440.585 305.938L433.81 305.311L433.371 312.359L440.169 312.774L440.585 305.938Z" fill="#D1D7D7"/>
<path opacity="0.7" d="M511.518 64.6923L509.006 70.7177L514.575 74.4552L517.806 67.3185L511.518 64.6923Z" fill="#D1D7D7"/>
<path opacity="0.7" d="M516.484 54.4456L513.727 61.1384L519.31 63.2767L522.771 57.0718L516.484 54.4456Z" fill="#D1D7D7"/>
<path opacity="0.7" d="M552.851 33.3793L547.197 44.0056L559.456 49.3612L566.181 35.0359L552.851 33.3793Z" fill="#D1D7D7"/>
<path opacity="0.7" d="M507.414 74.5765L504.665 81.3738L510.609 83.1854L513.269 77.3966L507.414 74.5765Z" fill="#D1D7D7"/>
<path opacity="0.7" d="M527.382 67.9475L524.833 73.7128L530.427 77.2482L532.978 70.2887L527.382 67.9475Z" fill="#D1D7D7"/>
<path opacity="0.7" d="M531.554 58.6211L529.005 64.3864L534.16 66.7219L537.149 60.9623L531.554 58.6211Z" fill="#D1D7D7"/>
<path opacity="0.7" d="M537.323 44.5436L534.193 49.754L539.348 52.0895L542.337 46.3298L537.323 44.5436Z" fill="#D1D7D7"/>
<path opacity="0.7" d="M552.74 51.5782L550.192 57.3436L555.346 59.6791L557.586 54.1214L552.74 51.5782Z" fill="#D1D7D7"/>
<path opacity="0.7" d="M544.848 47.8056L542.299 53.571L547.454 55.9065L550.462 50.7176L544.848 47.8056Z" fill="#D1D7D7"/>
<path opacity="0.7" d="M523.134 77.4755L520.403 83.5443L525.903 86.3667L528.737 80.4216L523.134 77.4755Z" fill="#D1D7D7"/>
<path opacity="0.7" d="M518.825 87.0034L516.276 93.0115L521.523 95.7559L523.894 89.7784L518.825 87.0034Z" fill="#D1D7D7"/>
<path opacity="0.7" fill-rule="evenodd" clip-rule="evenodd" d="M470.759 194.404L471.209 198.805L462.799 200.522L461.872 195.827L470.759 194.404Z" fill="#D1D7D7"/>
<path opacity="0.7" fill-rule="evenodd" clip-rule="evenodd" d="M473.98 209.021L475.323 213.893L465.785 215.75L464.629 210.248L473.98 209.021Z" fill="#D1D7D7"/>
<path opacity="0.7" fill-rule="evenodd" clip-rule="evenodd" d="M472.231 201.565L473.464 206.482L464.361 207.793L463.107 203.107L472.231 201.565Z" fill="#D1D7D7"/>
<path opacity="0.7" fill-rule="evenodd" clip-rule="evenodd" d="M450.727 232.016L449.826 227.645L458.701 226.194L459.583 230.404L450.727 232.016Z" fill="#D1D7D7"/>
<path opacity="0.7" fill-rule="evenodd" clip-rule="evenodd" d="M447.266 218.429L445.752 213.14L455.248 211.081L456.482 216.295L447.266 218.429Z" fill="#D1D7D7"/>
<path opacity="0.7" fill-rule="evenodd" clip-rule="evenodd" d="M449.104 225.399L448.034 221.074L456.994 218.599L458.193 223.665L449.104 225.399Z" fill="#D1D7D7"/>
<path opacity="0.7" fill-rule="evenodd" clip-rule="evenodd" d="M434.655 271.767L428.608 271.701L429.849 260.428L436.11 260.984L434.655 271.767Z" fill="#D1D7D7"/>
<path opacity="0.7" fill-rule="evenodd" clip-rule="evenodd" d="M417.804 271.387L410.933 270.938L412.179 258.78L419.086 259.331L417.804 271.387Z" fill="#D1D7D7"/>
<path opacity="0.7" fill-rule="evenodd" clip-rule="evenodd" d="M426.332 271.857L419.964 271.546L421.418 259.645L427.573 260.399L426.332 271.857Z" fill="#D1D7D7"/>
<path opacity="0.7" d="M521.932 254.735L511.027 257.177L515.648 269.125L524.515 266.925L521.932 254.735Z" fill="#D1D7D7"/>
<path opacity="0.7" d="M537.647 239.587L535.212 228.317L526.094 231.645L527.905 241.313L537.647 239.587Z" fill="#D1D7D7"/>
<path opacity="0.7" d="M549.592 237.136L547.424 226.527L538.289 228.688L539.849 238.862L549.592 237.136Z" fill="#D1D7D7"/>
<path opacity="0.7" d="M546.925 295.59L559.851 292.115L558.278 285.015L545.182 288.044L546.925 295.59Z" fill="#D1D7D7"/>
<path opacity="0.7" d="M545.341 280.143L556.91 277.913L554.933 271.107L544.785 273.331L545.341 280.143Z" fill="#D1D7D7"/>
<path opacity="0.7" d="M227.31 25.1788L201.668 36.3972L228.912 44.4104L227.31 25.1788Z" fill="#D1D7D7"/>
<path opacity="0.7" fill-rule="evenodd" clip-rule="evenodd" d="M253.423 13.574L262.854 9.35044L266 13.574L255.487 18.4215L253.423 13.574Z" fill="#D1D7D7"/>
<path opacity="0.7" fill-rule="evenodd" clip-rule="evenodd" d="M311.413 1.16221C310.849 2.13015 309.37 2.25833 307.916 1.55402C306.935 1.0782 306.94 -0.131514 307.047 -0.868827C307.105 -1.27135 307.268 -1.64987 307.523 -1.96922C307.873 -2.40861 308.458 -2.98046 309.133 -2.99846C310.231 -3.02676 311.176 -2.53936 311.71 -1.65801C312.245 -0.77752 311.977 0.192133 311.413 1.16221Z" fill="#D1D7D7"/>
<path opacity="0.7" fill-rule="evenodd" clip-rule="evenodd" d="M498.21 30.5124C497.43 31.2499 496.398 31.1823 495.305 30.8064C494.212 30.4319 493.726 29.0673 494.14 27.4178C494.448 26.1928 495.899 26.0101 496.626 25.997C496.901 25.992 497.172 26.0492 497.423 26.1667C497.937 26.4067 498.806 26.9203 498.982 27.7023C499.235 28.8287 498.991 29.7741 498.21 30.5124Z" fill="#D1D7D7"/>
<path opacity="0.7" fill-rule="evenodd" clip-rule="evenodd" d="M496.022 35.8492C495.447 36.3919 494.688 36.3422 493.884 36.0656C493.079 35.7899 492.722 34.7855 493.026 33.5715C493.253 32.6699 494.321 32.5353 494.856 32.5257C495.058 32.5221 495.258 32.5642 495.442 32.6506C495.82 32.8273 496.46 33.2053 496.59 33.7809C496.776 34.6099 496.597 35.3058 496.022 35.8492Z" fill="#D1D7D7"/>
<path opacity="0.7" fill-rule="evenodd" clip-rule="evenodd" d="M480.95 247.591L473.319 248.955L480.483 280.952L484.532 279.797L480.901 264.27L484.216 263.338L480.95 247.591Z" fill="#D1D7D7"/>
<path opacity="0.7" fill-rule="evenodd" clip-rule="evenodd" d="M467.552 264.163L447.833 262.559L451.192 277.939L469.618 274.839L467.552 264.163Z" fill="#D1D7D7"/>
<path opacity="0.7" fill-rule="evenodd" clip-rule="evenodd" d="M519.939 299.402C518.784 298.787 518.461 297.569 518.47 296.162C518.478 294.754 519.865 293.663 521.93 293.499C523.464 293.379 524.239 294.984 524.536 295.817C524.649 296.134 524.688 296.468 524.65 296.804C524.573 297.49 524.317 298.693 523.483 299.201C522.281 299.931 521.094 300.016 519.939 299.402Z" fill="#D1D7D7"/>
<path opacity="0.7" fill-rule="evenodd" clip-rule="evenodd" d="M527.269 296.584C526.427 296.136 526.191 295.248 526.198 294.222C526.204 293.195 527.215 292.4 528.721 292.281C529.839 292.193 530.405 293.363 530.621 293.971C530.703 294.202 530.732 294.446 530.704 294.69C530.648 295.191 530.462 296.068 529.853 296.438C528.977 296.97 528.112 297.033 527.269 296.584Z" fill="#D1D7D7"/>
<path opacity="0.7" fill-rule="evenodd" clip-rule="evenodd" d="M524.892 283.834C524.203 283.467 524.01 282.741 524.016 281.901C524.02 281.061 524.848 280.41 526.08 280.313C526.995 280.241 527.458 281.198 527.635 281.696C527.702 281.884 527.726 282.084 527.703 282.284C527.657 282.694 527.504 283.412 527.006 283.714C526.289 284.15 525.581 284.201 524.892 283.834Z" fill="#D1D7D7"/>
<path opacity="0.7" fill-rule="evenodd" clip-rule="evenodd" d="M567.7 340.272L568.629 331.793L563.43 331.979L562.502 341.385L567.7 340.272Z" fill="#D1D7D7"/>
<path opacity="0.7" fill-rule="evenodd" clip-rule="evenodd" d="M553.157 343.18L547.712 343.799L548.639 332.1L553.962 332.103L553.157 343.18Z" fill="#D1D7D7"/>
<path opacity="0.7" fill-rule="evenodd" clip-rule="evenodd" d="M560.46 341.695L555.447 342.437L556.233 332.042L561.326 331.917L560.46 341.695Z" fill="#D1D7D7"/>
<path opacity="0.7" fill-rule="evenodd" clip-rule="evenodd" d="M536.982 345.759L529.643 347.157L531.017 331.638L538.122 331.813L536.982 345.759Z" fill="#D1D7D7"/>
<path opacity="0.7" fill-rule="evenodd" clip-rule="evenodd" d="M545.051 344.268L539.05 345.302L540.139 331.901L546.103 331.989L545.051 344.268Z" fill="#D1D7D7"/>
<path opacity="0.7" fill-rule="evenodd" clip-rule="evenodd" d="M568.797 329.76L570.094 319.854L564.959 319.387L563.61 329.76L568.797 329.76Z" fill="#D1D7D7"/>
<path opacity="0.7" fill-rule="evenodd" clip-rule="evenodd" d="M554.086 329.504L548.826 329.442L550.003 317.962L555.014 318.55L554.086 329.504Z" fill="#D1D7D7"/>
<path opacity="0.7" fill-rule="evenodd" clip-rule="evenodd" d="M561.38 329.604L556.215 329.607L557.438 318.764L562.677 319.335L561.38 329.604Z" fill="#D1D7D7"/>
<path opacity="0.7" fill-rule="evenodd" clip-rule="evenodd" d="M538.12 329.194L531.374 328.885L532.472 315.799L539.314 316.5L538.12 329.194Z" fill="#D1D7D7"/>
<path opacity="0.7" fill-rule="evenodd" clip-rule="evenodd" d="M546.35 329.38L540.428 329.295L541.771 316.817L547.526 317.498L546.35 329.38Z" fill="#D1D7D7"/>
<path opacity="0.7" fill-rule="evenodd" clip-rule="evenodd" d="M586.35 321.614L573.628 320.398L571.197 339.603L584.244 336.686L586.35 321.614Z" fill="#D1D7D7"/>
<path opacity="0.7" fill-rule="evenodd" clip-rule="evenodd" d="M429.916 369.723L426.934 356.917L433.064 355.738L441.289 361.575L442.498 367.295L429.916 369.723Z" fill="#D1D7D7"/>
<path opacity="0.7" d="M476.616 336.166L482.438 335.051L481.023 329.204L475.589 330.697L476.616 336.166Z" fill="#D1D7D7"/>
<path opacity="0.7" fill-rule="evenodd" clip-rule="evenodd" d="M829.144 56.3503C828.267 54.6476 828.894 52.9132 830.079 51.2278C831.262 49.5401 833.84 49.3837 836.461 50.9092C838.407 52.043 838.002 54.6205 837.664 55.8712C837.537 56.3457 837.305 56.7812 836.979 57.1532C836.314 57.9142 835.003 59.1491 833.576 59.0636C831.521 58.9398 830.022 58.0535 829.144 56.3503Z" fill="#D1D7D7"/>
<path opacity="0.7" fill-rule="evenodd" clip-rule="evenodd" d="M822.89 61.7447C822.41 60.813 822.753 59.8639 823.401 58.9416C824.049 58.0181 825.459 57.9325 826.894 58.7673C827.959 59.3877 827.737 60.7981 827.552 61.4825C827.482 61.7422 827.355 61.9805 827.177 62.184C826.813 62.6005 826.096 63.2762 825.315 63.2295C824.191 63.1617 823.37 62.6767 822.89 61.7447Z" fill="#D1D7D7"/>
<path opacity="0.7" fill-rule="evenodd" clip-rule="evenodd" d="M823.051 55.1163C822.708 54.4501 822.953 53.7715 823.417 53.112C823.88 52.4517 824.888 52.3906 825.914 52.9874C826.675 53.431 826.517 54.4395 826.385 54.9288C826.335 55.1144 826.244 55.2848 826.116 55.4304C825.856 55.7281 825.343 56.2113 824.785 56.1778C823.981 56.1294 823.395 55.7826 823.051 55.1163Z" fill="#D1D7D7"/>
<path opacity="0.7" fill-rule="evenodd" clip-rule="evenodd" d="M827.345 2.55882L824.011 9.45651L828.509 11.0938L831.742 3.61094L827.345 2.55882Z" fill="#D1D7D7"/>
<path opacity="0.7" fill-rule="evenodd" clip-rule="evenodd" d="M833.598 3.89461L838.077 4.7056L834.507 13.031L830.173 11.6398L833.598 3.89461Z" fill="#D1D7D7"/>
<path opacity="0.7" d="M688.887 19.4956L692.835 7.4007L699.227 13.2288L698.914 22.8169L688.887 19.4956Z" fill="#D1D7D7"/>
<path opacity="0.7" d="M798.546 433.339L790.971 429.415L792.614 425.764L800.371 429.05L798.546 433.339Z" fill="#D1D7D7"/>
<path opacity="0.7" d="M801.193 427.498L793.8 424.212L794.987 419.832L802.653 423.3L801.193 427.498Z" fill="#D1D7D7"/>
<path opacity="0.7" d="M796.764 417.476L800.951 407.733L804.654 408.86L801.997 415.382L805.137 416.751L803.527 420.455L796.764 417.476Z" fill="#D1D7D7"/>
<path opacity="0.7" d="M789.105 408.854L771.376 413.286L772.115 421.412L781.964 427.321L789.105 408.854Z" fill="#D1D7D7"/>
<path opacity="0.7" d="M800.359 306.797L796.761 290.457L780.871 294.505L783.869 310.395L800.359 306.797Z" fill="#D1D7D7"/>
<path opacity="0.7" d="M803.357 320.139L801.109 309.646L792.114 311.894L794.513 321.938L803.357 320.139Z" fill="#D1D7D7"/>
<path opacity="0.7" d="M779.372 306.048L777.273 295.105L766.33 297.353L768.429 308.596L779.372 306.048Z" fill="#D1D7D7"/>
<path opacity="0.7" d="M740.127 439.776L735.457 420.944L748.263 418.081L750.071 424.409L743.442 426.217L744.195 430.887L751.276 429.23L753.084 437.366L740.127 439.776Z" fill="#D1D7D7"/>
<path opacity="0.7" d="M855.975 278.315L818.798 286.41L820.747 294.505L826.593 293.306L827.942 300.651L850.878 296.004L849.379 288.658L857.624 286.86L855.975 278.315Z" fill="#D1D7D7"/>
<path opacity="0.7" d="M772.926 344.724L736.198 352.52L738.147 361.664L752.238 359.116L751.339 354.319L773.975 349.521L772.926 344.724Z" fill="#D1D7D7"/>
<path opacity="0.7" d="M746.092 339.028L726.154 343.525L724.355 339.777L728.553 331.832L743.544 328.234L746.092 339.028Z" fill="#D1D7D7"/>
<path opacity="0.7" d="M768.795 413.908L760.869 415.716L763.65 422.529L770.047 421.139L768.795 413.908Z" fill="#D1D7D7"/>
<path opacity="0.7" d="M778.331 351.337L765.864 353.897L766.937 359.015L790.385 354.97L787.33 341.595L776.927 343.742L778.331 351.337Z" fill="#D1D7D7"/>
<path opacity="0.7" d="M833.465 394.96L834.996 387.906L821.619 391.966L833.465 394.96Z" fill="#D1D7D7"/>
<path opacity="0.7" d="M732.961 409.916L731.091 400.894L736.977 399.574L738.957 408.705L732.961 409.916Z" fill="#D1D7D7"/>
<path opacity="0.7" d="M740.306 408.495L739.095 402.444L745.202 401.344L746.577 407.285L740.306 408.495Z" fill="#D1D7D7"/>
<path opacity="0.7" d="M108.055 431.024L104.994 417.527L98.4542 419.475L99.289 423.371L95.8105 423.789L96.9236 433.25L108.055 431.024Z" fill="#D1D7D7"/>
<path opacity="0.7" d="M95.764 411.417L92.416 398.025L100.116 396.352L103.13 409.967L95.764 411.417Z" fill="#D1D7D7"/>
<path opacity="0.7" fill-rule="evenodd" clip-rule="evenodd" d="M61.499 404.428C61.3218 406.387 59.8237 407.546 57.8684 408.355C55.9136 409.167 53.592 407.883 52.1592 405.117C51.0958 403.063 52.8665 401.051 53.8474 400.152C54.2196 399.812 54.6605 399.562 55.1476 399.418C56.1434 399.125 57.9595 398.775 59.1496 399.635C60.8634 400.874 61.675 402.467 61.499 404.428Z" fill="#D1D7D7"/>
<path opacity="0.7" d="M25.9825 222.853L4.01895 227.355L3.20044 222.171L9.06647 220.806L8.93005 218.078L13.159 217.396L12.2041 211.803L18.8886 210.848L19.98 216.168L24.6183 215.077L25.9825 222.853Z" fill="#D1D7D7"/>
<path opacity="0.7" d="M21.7534 161.055L-0.619324 166.102L0.335606 171.832L7.97508 169.922L8.38434 174.015L23.9361 170.877L21.7534 161.055Z" fill="#D1D7D7"/>
<path opacity="0.7" d="M26.5269 167.095L25.1034 160.221L31.596 159.075L33.0195 165.706L26.5269 167.095Z" fill="#D1D7D7"/>
<path opacity="0.7" d="M29.2006 108.613L30.8931 99.0738L8.15572 89.1394L2.27775 95.5684L-4.33496 89.5068L10.6849 72.1501L41.1939 85.7621L38.8937 109.536L29.2006 108.613Z" fill="#D1D7D7"/>
<path opacity="0.7" d="M-6.5451 43.9852L-5.92447 37.1584L1.36781 37.8566L0.66961 44.5283L-6.5451 43.9852Z" fill="#D1D7D7"/>
<path opacity="0.7" fill-rule="evenodd" clip-rule="evenodd" d="M141.287 15.5176C140.269 16.1131 139.182 15.7853 138.106 15.1125C137.029 14.4409 136.848 12.8607 137.699 11.1983C138.332 9.96397 139.93 10.128 140.71 10.2939C141.006 10.3569 141.282 10.4851 141.522 10.673C142.012 11.057 142.814 11.8219 142.809 12.7021C142.801 13.97 142.306 14.921 141.287 15.5176Z" fill="#D1D7D7"/>
<path opacity="0.7" fill-rule="evenodd" clip-rule="evenodd" d="M138.45 8.12001C137.762 8.52227 137.028 8.30084 136.301 7.84642C135.574 7.39283 135.451 6.32552 136.026 5.20275C136.454 4.36904 137.533 4.47982 138.06 4.5919C138.26 4.63441 138.446 4.72102 138.608 4.84794C138.939 5.10726 139.481 5.62388 139.478 6.21843C139.472 7.07477 139.138 7.71711 138.45 8.12001Z" fill="#D1D7D7"/>
<path opacity="0.7" d="M119.929 10.7717L92.0229 0.748367L94.1871 -12.2365L111.614 -6.31355L111.272 -1.18797L120.726 1.88738L119.929 10.7717Z" fill="#D1D7D7"/>
<path opacity="0.7" fill-rule="evenodd" clip-rule="evenodd" d="M58.1449 361.205L51.8592 362.596L52.8381 368.232L59.2358 366.874L58.1449 361.205Z" fill="#D1D7D7"/>
<path opacity="0.7" fill-rule="evenodd" clip-rule="evenodd" d="M56.3575 353.547L50.3518 354.827L51.3311 360.159L57.7015 358.621L56.3575 353.547Z" fill="#D1D7D7"/>
<path opacity="0.7" fill-rule="evenodd" clip-rule="evenodd" d="M54.6741 345.439L48.7689 346.678L49.8999 352.314L55.75 350.765L54.6741 345.439Z" fill="#D1D7D7"/>
<path opacity="0.7" fill-rule="evenodd" clip-rule="evenodd" d="M52.9435 336.903L46.7293 338.452L47.86 344.24L54.0487 342.553L52.9435 336.903Z" fill="#D1D7D7"/>
<path opacity="0.7" fill-rule="evenodd" clip-rule="evenodd" d="M51.1014 328.971L44.8201 330.157L46.1257 335.71L52.349 334.191L51.1014 328.971Z" fill="#D1D7D7"/>
<path opacity="0.7" fill-rule="evenodd" clip-rule="evenodd" d="M765.27 13.8669L771.706 16.6509L768.603 23.9489L761.881 21.1584L765.27 13.8669Z" fill="#D1D7D7"/>
<path opacity="0.7" d="M749.688 38.2928L756.031 22.5129L748.063 20.0376L745.511 27.4634L739.555 25.5296L735.919 33.729L749.688 38.2928Z" fill="#D1D7D7"/>
<path opacity="0.7" fill-rule="evenodd" clip-rule="evenodd" d="M781.939 38.4483L775.452 35.7079L778.768 28.3143L785.205 31.0473L781.939 38.4483Z" fill="#D1D7D7"/>
<path opacity="0.7" fill-rule="evenodd" clip-rule="evenodd" d="M769.48 3.82787L776.215 6.55241L772.862 14.2872L766.184 11.2762L769.48 3.82787Z" fill="#D1D7D7"/>
<path opacity="0.7" fill-rule="evenodd" clip-rule="evenodd" d="M777.566 47.9599L770.879 45.5868L774.354 37.9067L780.881 40.6567L777.566 47.9599Z" fill="#D1D7D7"/>
<path opacity="0.7" fill-rule="evenodd" clip-rule="evenodd" d="M760.854 23.7128L767.452 26.5116L764.294 33.1155L757.98 30.7054L760.854 23.7128Z" fill="#D1D7D7"/>
<path opacity="0.7" fill-rule="evenodd" clip-rule="evenodd" d="M786.512 28.6744L779.968 26.1465L783.222 19.2178L789.497 21.7286L786.512 28.6744Z" fill="#D1D7D7"/>
<path opacity="0.7" fill-rule="evenodd" clip-rule="evenodd" d="M756.919 33.2119L763.33 35.4292L760.535 42.0329L754.066 39.8901L756.919 33.2119Z" fill="#D1D7D7"/>
<path opacity="0.7" fill-rule="evenodd" clip-rule="evenodd" d="M790.598 19.2395L784.245 16.8254L787.124 10.3617L793.558 12.6077L790.598 19.2395Z" fill="#D1D7D7"/>
<path opacity="0.7" d="M6.32721 140.119L10.9781 129.349L17.7095 131.552L13.1811 142.445L6.32721 140.119Z" fill="#D1D7D7"/>
<path opacity="0.7" d="M-14.5152 150.495L-13.1292 145.231L4.94709 149.28L3.34637 153.036L-5.44182 154.954L-14.5152 150.495Z" fill="#D1D7D7"/>
</g>
<g opacity="0.6">
<path opacity="0.6" fill-rule="evenodd" clip-rule="evenodd" d="M640.921 351.933L637.427 352.814L636.546 349.32L625.391 351.622L626.383 355.341L623.228 355.999L624.334 359.494L641.802 355.427L640.921 351.933Z" fill="#D1D7D7"/>
<path opacity="0.6" fill-rule="evenodd" clip-rule="evenodd" d="M606.756 324.165L595.433 322.878L594.608 328.939L604.493 330.504L606.756 324.165Z" fill="#D1D7D7"/>
<path opacity="0.6" fill-rule="evenodd" clip-rule="evenodd" d="M620.122 -3.76999L637.854 2.16311L641.108 -5.56615L623.02 -11.8943L620.122 -3.76999Z" fill="#D1D7D7"/>
<path opacity="0.6" fill-rule="evenodd" clip-rule="evenodd" d="M294.081 264.967L283.629 267.438L285.02 273.176L295.119 270.906L294.081 264.967Z" fill="#D1D7D7"/>
<path opacity="0.6" fill-rule="evenodd" clip-rule="evenodd" d="M295.639 274.35L285.743 276.337L287.416 282.363L296.751 280.13L295.639 274.35Z" fill="#D1D7D7"/>
<path opacity="0.6" fill-rule="evenodd" clip-rule="evenodd" d="M297.473 283.212L287.895 285.269L289.138 291.258L298.998 288.772L297.473 283.212Z" fill="#D1D7D7"/>
<path opacity="0.6" fill-rule="evenodd" clip-rule="evenodd" d="M191.976 77.5104L203.906 75.01L202.82 69.8895L190.75 72.0453L191.976 77.5104Z" fill="#D1D7D7"/>
<path opacity="0.6" fill-rule="evenodd" clip-rule="evenodd" d="M265.189 63.4928L272.358 62.1745L271.307 56.7056L264.11 58.2321L265.189 63.4928Z" fill="#D1D7D7"/>
<path opacity="0.6" fill-rule="evenodd" clip-rule="evenodd" d="M267.002 71.6497L274.088 70.4962L273.163 65.0013L265.967 66.5278L267.002 71.6497Z" fill="#D1D7D7"/>
<path opacity="0.6" fill-rule="evenodd" clip-rule="evenodd" d="M268.979 79.6419L275.983 78.5708L274.747 73.4624L267.79 74.6397L268.979 79.6419Z" fill="#D1D7D7"/>
<path opacity="0.6" fill-rule="evenodd" clip-rule="evenodd" d="M270.683 88.4653L277.466 86.7278L276.642 81.7018L269.556 83.3497L270.683 88.4653Z" fill="#D1D7D7"/>
<path opacity="0.6" fill-rule="evenodd" clip-rule="evenodd" d="M272.06 96.0559L279.401 94.6021L278.125 89.8588L271.286 91.3419L272.06 96.0559Z" fill="#D1D7D7"/>
<path opacity="0.6" fill-rule="evenodd" clip-rule="evenodd" d="M61.0858 331.488L68.2971 330.431L66.7923 324.793L60.0465 325.904L61.0858 331.488Z" fill="#D1D7D7"/>
<path opacity="0.6" fill-rule="evenodd" clip-rule="evenodd" d="M63.0404 339.678L69.6546 338.669L68.5323 333.085L61.6831 334.409L63.0404 339.678Z" fill="#D1D7D7"/>
<path opacity="0.6" fill-rule="evenodd" clip-rule="evenodd" d="M64.569 348.251L71.1743 347.14L69.851 341.307L63.4913 342.723L64.569 348.251Z" fill="#D1D7D7"/>
<path opacity="0.6" fill-rule="evenodd" clip-rule="evenodd" d="M66.3007 357.347L73.1427 355.857L71.7302 350.302L65.195 351.483L66.3007 357.347Z" fill="#D1D7D7"/>
<path opacity="0.6" fill-rule="evenodd" clip-rule="evenodd" d="M68.3072 366.137L74.8266 364.951L73.7886 359.406L67.0508 360.716L68.3072 366.137Z" fill="#D1D7D7"/>
<path opacity="0.6" fill-rule="evenodd" clip-rule="evenodd" d="M282.214 68.3684L287.805 67.2657L285.679 58.8385L280.166 60.3349L282.214 68.3684Z" fill="#D1D7D7"/>
<path opacity="0.6" fill-rule="evenodd" clip-rule="evenodd" d="M286.166 83.3184L291.507 82.6239L289.459 74.2754L284.118 75.285L286.166 83.3184Z" fill="#D1D7D7"/>
<path opacity="0.6" fill-rule="evenodd" clip-rule="evenodd" d="M256.815 100.011L264.157 98.557L262.849 92.6692L256.187 94.0679L256.815 100.011Z" fill="#D1D7D7"/>
<path opacity="0.6" fill-rule="evenodd" clip-rule="evenodd" d="M176.312 80.8504L183.287 79.23L180.049 66.2122L173.508 67.458L176.312 80.8504Z" fill="#D1D7D7"/>
<path opacity="0.6" fill-rule="evenodd" clip-rule="evenodd" d="M170.446 117.131L199.833 110.779L195.152 86.5209L165.824 92.6228L170.446 117.131Z" fill="#D1D7D7"/>
<path opacity="0.6" fill-rule="evenodd" clip-rule="evenodd" d="M190.28 69.9323L201.968 67.0851L200.462 62.2958L188.812 64.1204L190.28 69.9323Z" fill="#D1D7D7"/>
<path opacity="0.6" fill-rule="evenodd" clip-rule="evenodd" d="M202.511 53.3903L203.915 49.1395L218.553 53.7031L217.292 58.0429L202.511 53.3903Z" fill="#D1D7D7"/>
<path opacity="0.6" fill-rule="evenodd" clip-rule="evenodd" d="M276.254 280.428L274.114 268.429L269.008 269.817L270.754 281.489L276.254 280.428Z" fill="#D1D7D7"/>
<path opacity="0.6" fill-rule="evenodd" clip-rule="evenodd" d="M278.608 291.159L277.102 283.656L262.897 286.51L264.213 293.722L278.608 291.159Z" fill="#D1D7D7"/>
<path opacity="0.6" fill-rule="evenodd" clip-rule="evenodd" d="M267.978 281.923L265.563 270.508L260.652 271.516L262.124 283.215L267.978 281.923Z" fill="#D1D7D7"/>
<path opacity="0.6" fill-rule="evenodd" clip-rule="evenodd" d="M206.246 236.104L208.302 232.127L222.342 238.595L220.112 243.023L206.246 236.104Z" fill="#D1D7D7"/>
<path opacity="0.6" fill-rule="evenodd" clip-rule="evenodd" d="M352.438 281.389L346.634 281.517L346.122 287.063L352.155 287.626L352.438 281.389Z" fill="#D1D7D7"/>
<path opacity="0.6" fill-rule="evenodd" clip-rule="evenodd" d="M343.905 281.466L337.749 280.946L337.972 275.49L332.537 275.49L331.59 285.961L343.647 287.104L343.905 281.466Z" fill="#D1D7D7"/>
<path opacity="0.6" fill-rule="evenodd" clip-rule="evenodd" d="M358.339 244.975L358.852 240.527L383.013 243.136L380.788 247.388L358.339 244.975Z" fill="#D1D7D7"/>
<path opacity="0.6" fill-rule="evenodd" clip-rule="evenodd" d="M307.3 358.301L302.607 357.234L298.689 340.503L303.443 341.163L307.3 358.301Z" fill="#D1D7D7"/>
<path opacity="0.6" fill-rule="evenodd" clip-rule="evenodd" d="M172.759 203.087L170.915 207.167L148.699 197.318L152.114 193.947L172.759 203.087Z" fill="#D1D7D7"/>
<path opacity="0.6" fill-rule="evenodd" clip-rule="evenodd" d="M181.062 352.721L191.822 358.364L188.496 364.576L178.254 358.881L181.062 352.721Z" fill="#D1D7D7"/>
<path opacity="0.6" fill-rule="evenodd" clip-rule="evenodd" d="M185.177 343.22L200.544 350.882L197.218 357.095L182.296 349.305L185.177 343.22Z" fill="#D1D7D7"/>
<path opacity="0.6" fill-rule="evenodd" clip-rule="evenodd" d="M528.563 388.574L530.606 397.131L525.514 399.69L523.825 394.98L519.333 396.158L518.648 390.864L528.563 388.574Z" fill="#D1D7D7"/>
<path opacity="0.6" fill-rule="evenodd" clip-rule="evenodd" d="M510.11 6.23066L511.272 -5.51791L517.514 -6.18777L515.558 8.65189L510.11 6.23066Z" fill="#D1D7D7"/>
<path opacity="0.6" fill-rule="evenodd" clip-rule="evenodd" d="M496.576 2.46268L495.836 7.92119L506.176 8.76226L506.932 3.5825L496.576 2.46268Z" fill="#D1D7D7"/>
<path opacity="0.6" fill-rule="evenodd" clip-rule="evenodd" d="M570.834 20.9482L544.888 18.5299L545.091 14.1914L559.073 15.5338L560.287 9.53333L568.895 10.7202L571.297 5.61781L577.766 6.85673L570.834 20.9482Z" fill="#D1D7D7"/>
<path opacity="0.6" fill-rule="evenodd" clip-rule="evenodd" d="M291.185 195.914L269.776 193.772L267.596 180.605L275.233 180.739L276.452 186.856L288.645 187.745L288.413 190.707L292.023 191.4L291.185 195.914Z" fill="#D1D7D7"/>
<path opacity="0.6" fill-rule="evenodd" clip-rule="evenodd" d="M338.551 220.872L339.54 211.972L358.33 214.197L357.959 217.411L354.498 217.04L352.396 234.346L342.631 233.605L344.238 221.614L338.551 220.872Z" fill="#D1D7D7"/>
<path opacity="0.6" fill-rule="evenodd" clip-rule="evenodd" d="M329.194 313.936L331.017 296.577L343.29 297.654L342.962 303.992L336.187 303.227L335.313 314.701L329.194 313.936Z" fill="#D1D7D7"/>
<path opacity="0.6" fill-rule="evenodd" clip-rule="evenodd" d="M231.908 322.038L252.638 317.379L254.987 330.636L251.48 331.428L252.251 334.376L245.639 336.363L244.271 330.935L237.829 326.469L233.378 327.129L231.908 322.038Z" fill="#D1D7D7"/>
<path opacity="0.6" d="M323.933 345.205L322.994 352.247L333.746 355.481L336.72 349.424L323.933 345.205Z" fill="#D1D7D7"/>
<path opacity="0.6" d="M322.524 355.333L321.518 361.303L330.467 363.475L332.9 357.963L322.524 355.333Z" fill="#D1D7D7"/>
<path opacity="0.6" d="M597.766 70.2674L587.866 66.4831L583.03 76.1522L592.936 81.0132L597.766 70.2674Z" fill="#D1D7D7"/>
<path opacity="0.6" d="M621.884 71.6039L611.984 67.8195L607.567 78.3287L617.054 82.3496L621.884 71.6039Z" fill="#D1D7D7"/>
<path opacity="0.6" d="M714.843 91.3868L710.165 102.64L720.881 104.101L724.68 93.3854L714.843 91.3868Z" fill="#D1D7D7"/>
<path opacity="0.6" d="M722.362 74.8631L717.007 87.0414L723.053 88.0778L729.185 74.8631L726.421 73.8267L722.362 74.8631Z" fill="#D1D7D7"/>
<path opacity="0.6" d="M698.74 100.822L703.639 90.5604L693.118 87.151L689.222 99.6197L698.74 100.822Z" fill="#D1D7D7"/>
<path opacity="0.6" d="M709.604 74.4887L703.934 72.5694L706.202 66.2008L712.571 67.9456L709.604 74.4887Z" fill="#D1D7D7"/>
<path opacity="0.6" d="M705.242 85.3938L698.699 83.5617L701.491 77.0187L708.034 78.8507L705.242 85.3938Z" fill="#D1D7D7"/>
<path opacity="0.6" d="M701.301 124.655L705.15 113.739L715.426 114.621L711.334 125.336L701.301 124.655Z" fill="#D1D7D7"/>
<path opacity="0.6" d="M689.682 123.795L694.247 112.518L683.183 111.601L679.773 122.804L689.682 123.795Z" fill="#D1D7D7"/>
<path opacity="0.6" d="M623.605 160.146L606.882 153.071L600.447 168.431L621.547 178.155L623.605 160.146Z" fill="#D1D7D7"/>
<path opacity="0.6" d="M283.057 207.21L271.163 205.723L273.641 215.965L284.544 213.487L283.057 207.21Z" fill="#D1D7D7"/>
<path opacity="0.6" d="M655.253 20.7231L645.353 16.9388L640.936 27.448L650.424 31.4689L655.253 20.7231Z" fill="#D1D7D7"/>
<path opacity="0.6" d="M658.953 33.7885L662.532 23.326L672.169 26.7677L668.865 36.8171L658.953 33.7885Z" fill="#D1D7D7"/>
<path opacity="0.6" fill-rule="evenodd" clip-rule="evenodd" d="M204.634 276.31L202.615 280.636L196.48 277.654L198.451 273.647L204.634 276.31Z" fill="#D1D7D7"/>
<path opacity="0.6" fill-rule="evenodd" clip-rule="evenodd" d="M209.422 265.763L205.921 273.322L193.458 267.865L195.888 263.069L199.568 264.712L201.144 261.558L209.422 265.763Z" fill="#D1D7D7"/>
<path opacity="0.6" fill-rule="evenodd" clip-rule="evenodd" d="M201.39 283.204L199.545 287.809L190.764 283.304L192.866 278.968L201.39 283.204Z" fill="#D1D7D7"/>
<g opacity="0.6">
<path d="M130.805 90.3091L117.184 92.3395L115.795 84.9705L129.189 82.437L130.805 90.3091Z" fill="#D1D7D7"/>
<path d="M128.377 78.4146L114.928 81.0943L113.812 74.3292L127.005 71.8865L128.377 78.4146Z" fill="#D1D7D7"/>
</g>
<path opacity="0.6" fill-rule="evenodd" clip-rule="evenodd" d="M482.231 3.39803L483.389 -7.39665L489.345 -6.85511L488.075 3.30789L482.231 3.39803Z" fill="#D1D7D7"/>
<path opacity="0.6" fill-rule="evenodd" clip-rule="evenodd" d="M420.237 440.061L425.758 438.857L428.168 449.9L421.943 451.607L422.369 454.483L417.159 456.354L412.83 434.712L418.968 433.263L420.237 440.061Z" fill="#D1D7D7"/>
<path opacity="0.6" fill-rule="evenodd" clip-rule="evenodd" d="M622.571 407.988L632.667 405.787L634.68 411.017L623.597 413.156L622.571 407.988Z" fill="#D1D7D7"/>
<path opacity="0.6" fill-rule="evenodd" clip-rule="evenodd" d="M184.5 18.4998L178.5 29.9998L186.5 32.4998L193 29.9998L184.5 18.4998Z" fill="#D1D7D7"/>
<path opacity="0.6" fill-rule="evenodd" clip-rule="evenodd" d="M248.359 438.92L234.903 441.734L237.705 453.554L247.589 451.371L248.359 438.92Z" fill="#D1D7D7"/>
<path opacity="0.6" fill-rule="evenodd" clip-rule="evenodd" d="M389.6 389.131L368.222 394.007L392.928 403.669L389.6 389.131Z" fill="#D1D7D7"/>
<path opacity="0.6" d="M354.254 413.172L361.318 411.968L359.885 404.969L353.045 406.466L354.254 413.172Z" fill="#D1D7D7"/>
<path opacity="0.6" d="M344.97 415.322L351.687 413.835L350.542 407.433L344.011 408.281L344.97 415.322Z" fill="#D1D7D7"/>
<path opacity="0.6" d="M217.549 358.422L224.109 357.168L222.363 350.335L215.968 351.473L217.549 358.422Z" fill="#D1D7D7"/>
<path opacity="0.6" d="M215.478 348.065L221.979 346.654L220.748 339.527L213.883 341.228L215.478 348.065Z" fill="#D1D7D7"/>
<path opacity="0.6" d="M221.073 377.842L227.3 376.564L226.721 369.673L219.907 371.05L221.073 377.842Z" fill="#D1D7D7"/>
<path opacity="0.6" d="M239.512 394.477L246.795 392.867L245.16 386.308L238.491 387.863L239.512 394.477Z" fill="#D1D7D7"/>
<path opacity="0.6" d="M243.326 410.189L250.219 409.126L248.583 402.567L241.915 404.122L243.326 410.189Z" fill="#D1D7D7"/>
<path opacity="0.6" d="M219.362 367.93L225.551 366.588L224.323 360.202L218.047 361.406L219.362 367.93Z" fill="#D1D7D7"/>
<path opacity="0.6" d="M241.471 359.203L235.048 360.742L236.753 367.346L243.134 366.133L241.471 359.203Z" fill="#D1D7D7"/>
<path opacity="0.6" d="M234.655 388.255L223.798 390.322L228.52 413.676L240.54 411.442L234.655 388.255Z" fill="#D1D7D7"/>
<path opacity="0.6" d="M272.544 398.487L273.89 405.156L282.368 403.077L281.842 400.731L289.769 398.606L287.93 391.776L283.858 392.433L282.676 387.967L286.617 386.916L285.433 380.596L278.123 382.584L277.481 380.275L269.145 382.135L270.62 388.355L276.943 386.928L279.206 396.745L272.544 398.487Z" fill="#D1D7D7"/>
<path opacity="0.6" d="M237.718 339.826L230.318 340.636L232.168 348.061L238.964 346.604L237.718 339.826Z" fill="#D1D7D7"/>
<path opacity="0.6" d="M239.546 349.717L233.374 351.131L235.1 357.657L240.938 356.225L239.546 349.717Z" fill="#D1D7D7"/>
<path opacity="0.6" d="M214.819 148.781L213.432 155.063L219.316 156.462L220.505 149.901L214.819 148.781Z" fill="#D1D7D7"/>
<path opacity="0.6" d="M212.707 158.074L211.336 164.885L216.961 165.963L218.487 159.667L212.707 158.074Z" fill="#D1D7D7"/>
<path opacity="0.6" d="M207.598 208.477L208.361 202.252L202.88 200.93L201.882 207.522L207.598 208.477Z" fill="#D1D7D7"/>
<path opacity="0.6" d="M214.594 176.161L216.04 169.51L210.387 168.595L209.044 174.932L214.594 176.161Z" fill="#D1D7D7"/>
<path opacity="0.6" d="M205.173 190.097L215.794 192.384L217.056 188.07L211.48 186.808L213.487 180.162L208.091 179.027L205.173 190.097Z" fill="#D1D7D7"/>
<path opacity="0.6" d="M180.163 169.176L179.275 174.809L185.556 176.26L186.508 170.725L180.163 169.176Z" fill="#D1D7D7"/>
<path opacity="0.6" d="M200.287 211.601L198.833 218.276L204.884 219.327L206.392 212.759L200.287 211.601Z" fill="#D1D7D7"/>
<path opacity="0.6" d="M190.886 171.532L189.725 176.839L195.541 177.993L197.156 172.645L190.886 171.532Z" fill="#D1D7D7"/>
<path opacity="0.6" d="M169.639 167.347L168.791 172.784L174.899 174.08L175.987 168.796L169.639 167.347Z" fill="#D1D7D7"/>
<path opacity="0.6" fill-rule="evenodd" clip-rule="evenodd" d="M324.792 373.042L312.47 399.821L305.898 369.099L324.792 373.042Z" fill="#D1D7D7"/>
<path opacity="0.6" fill-rule="evenodd" clip-rule="evenodd" d="M602.428 127.894L598.268 126.044L602.056 117.862L606.96 120.139L602.428 127.894Z" fill="#D1D7D7"/>
<path opacity="0.6" fill-rule="evenodd" clip-rule="evenodd" d="M588.966 122.394L583.901 120.318L587.916 111.469L592.815 113.747L588.966 122.394Z" fill="#D1D7D7"/>
<path opacity="0.6" fill-rule="evenodd" clip-rule="evenodd" d="M595.739 124.943L591.018 123.097L595.123 114.694L599.771 116.614L595.739 124.943Z" fill="#D1D7D7"/>
<path opacity="0.6" fill-rule="evenodd" clip-rule="evenodd" d="M594.792 143.476L590.632 141.626L594.42 133.444L599.088 135.527L594.792 143.476Z" fill="#D1D7D7"/>
<path opacity="0.6" fill-rule="evenodd" clip-rule="evenodd" d="M581.33 137.976L576.265 135.9L580.28 127.051L585.002 129.49L581.33 137.976Z" fill="#D1D7D7"/>
<path opacity="0.6" fill-rule="evenodd" clip-rule="evenodd" d="M546.902 164.131L540.671 161.059L543.743 154.742L550.06 157.637L546.902 164.131Z" fill="#D1D7D7"/>
<path opacity="0.6" fill-rule="evenodd" clip-rule="evenodd" d="M538.059 159.826L532.218 156.696L534.955 150.697L541.273 153.593L538.059 159.826Z" fill="#D1D7D7"/>
<path opacity="0.6" fill-rule="evenodd" clip-rule="evenodd" d="M529.799 155.61L523.958 152.48L526.695 146.481L532.476 149.4L529.799 155.61Z" fill="#D1D7D7"/>
<path opacity="0.6" fill-rule="evenodd" clip-rule="evenodd" d="M588.103 140.525L583.382 138.68L587.606 130.437L592.135 132.197L588.103 140.525Z" fill="#D1D7D7"/>
<path opacity="0.6" d="M217.571 411.784L206.771 413.826L208.119 422.683L219.319 420.599L217.571 411.784Z" fill="#D1D7D7"/>
<path opacity="0.6" d="M220.92 429.704L215.593 430.884L217.196 438.303L222.803 436.741L220.92 429.704Z" fill="#D1D7D7"/>
<path opacity="0.6" d="M298.225 114.369L296.696 103.919L274.121 108.852L298.225 114.369Z" fill="#D1D7D7"/>
<path opacity="0.6" d="M382.237 99.8185L384.16 108.39L392.237 106.604L390.314 98.3899L382.237 99.8185Z" fill="#D1D7D7"/>
<path opacity="0.6" d="M394.394 113.493L385.38 115.541L387.429 123.736L396.033 121.687L394.394 113.493Z" fill="#D1D7D7"/>
<path opacity="0.6" d="M398.91 121.012L397.269 112.987L405.294 111.892L407.118 119.005L398.91 121.012Z" fill="#D1D7D7"/>
<path opacity="0.6" d="M393.095 97.838L395.055 105.892L403 104.477L401.367 96.4231L393.095 97.838Z" fill="#D1D7D7"/>
<path opacity="0.6" d="M378.701 125.351L373.079 102.224L348.802 107.462L353.018 124.201L370.779 127.012L378.701 125.351Z" fill="#D1D7D7"/>
<path opacity="0.6" fill-rule="evenodd" clip-rule="evenodd" d="M302.843 127.349L300.439 137.169L295.493 136.887L297.69 126.253L302.843 127.349Z" fill="#D1D7D7"/>
<path opacity="0.6" fill-rule="evenodd" clip-rule="evenodd" d="M295.746 125.846L293.341 135.666L288.232 134.755L290.593 124.75L295.746 125.846Z" fill="#D1D7D7"/>
<path opacity="0.6" fill-rule="evenodd" clip-rule="evenodd" d="M281.565 122.726L279.161 132.546L274.07 131.016L276.412 121.63L281.565 122.726Z" fill="#D1D7D7"/>
<path opacity="0.6" fill-rule="evenodd" clip-rule="evenodd" d="M288.58 124.307L285.781 134.832L281.066 133.216L283.426 123.211L288.58 124.307Z" fill="#D1D7D7"/>
<path opacity="0.6" fill-rule="evenodd" clip-rule="evenodd" d="M369.006 204.189L369.669 193.798L377.47 194.98L376.406 205.382L369.006 204.189Z" fill="#D1D7D7"/>
<path opacity="0.6" fill-rule="evenodd" clip-rule="evenodd" d="M498.388 439.733L495.508 427.923L510.072 425.033L512.795 436.773L498.388 439.733Z" fill="#D1D7D7"/>
<path opacity="0.6" fill-rule="evenodd" clip-rule="evenodd" d="M517.284 435.853L514.403 424.043L535.255 419.929L537.467 431.329L517.284 435.853Z" fill="#D1D7D7"/>
<path opacity="0.6" fill-rule="evenodd" clip-rule="evenodd" d="M347.886 202.165L345.168 189.894L352.986 188.831L356.406 203.73L347.886 202.165Z" fill="#D1D7D7"/>
<path opacity="0.6" fill-rule="evenodd" clip-rule="evenodd" d="M379.217 205.733L380.071 198.762L391.418 200.181L391.182 206.8L379.217 205.733Z" fill="#D1D7D7"/>
<path opacity="0.6" fill-rule="evenodd" clip-rule="evenodd" d="M621.628 195.516L634.324 197.711L634.381 207.13L621.025 205.695L621.628 195.516Z" fill="#D1D7D7"/>
<path opacity="0.6" fill-rule="evenodd" clip-rule="evenodd" d="M609.641 193.087L617.717 194.672L616.694 208.799L608.191 208.451L609.641 193.087Z" fill="#D1D7D7"/>
<path opacity="0.6" fill-rule="evenodd" clip-rule="evenodd" d="M241.457 140.276L240.789 135.35L245.397 133.534L246.477 139.247L241.457 140.276Z" fill="#D1D7D7"/>
<path opacity="0.6" fill-rule="evenodd" clip-rule="evenodd" d="M240.648 132.286L239.651 127.211L243.891 125.678L244.636 130.927L240.648 132.286Z" fill="#D1D7D7"/>
<path opacity="0.6" fill-rule="evenodd" clip-rule="evenodd" d="M593.38 429.347L588.887 439.66L603.297 436.797L604.887 431.119L610.277 429.761L610.155 425.929L593.38 429.347Z" fill="#D1D7D7"/>
<path opacity="0.6" fill-rule="evenodd" clip-rule="evenodd" d="M544.458 417.562L542.3 405.367L548.556 405.672L549.713 417.191L544.458 417.562Z" fill="#D1D7D7"/>
<path opacity="0.4" d="M794.018 233.771C788.268 238.538 778.292 235.792 779.566 227.913C780.251 223.675 782.888 222.104 783.309 215.787C783.619 211.133 782.892 207.54 789.705 203.661C794.082 201.169 796.779 197.896 801.548 206.425C806.317 214.954 807.299 219.119 805.762 224.032C804.087 229.39 798.171 230.327 794.018 233.771Z" fill="#D1D7D7"/>
<path opacity="0.6" d="M254.883 246.564L243.872 248.229L243.829 245.249L254.192 243.069L254.883 246.564Z" fill="#D1D7D7"/>
<path opacity="0.6" d="M258.767 246.789L263.258 246.03L265.071 256.717L260.955 257.582L258.767 246.789Z" fill="#D1D7D7"/>
<path opacity="0.6" d="M271.419 255.428L266.933 256.216L266.128 251.438L270.203 250.386L271.419 255.428Z" fill="#D1D7D7"/>
<path opacity="0.6" d="M269.742 249.139L265.881 250.237L265.273 245.984L268.428 245.064L269.742 249.139Z" fill="#D1D7D7"/>
<path opacity="0.6" d="M240.648 222.018L244.583 221.406L245.234 226.614L241.827 227.135L240.648 222.018Z" fill="#D1D7D7"/>
<path opacity="0.6" d="M242.168 229.045L245.444 228.182L245.887 231.781L243.209 232.505L242.168 229.045Z" fill="#D1D7D7"/>
<path opacity="0.6" d="M253.04 237.415L253.75 241.007L248.196 242.105L248.39 243.086L244.81 243.793L244.301 239.749L253.04 237.415Z" fill="#D1D7D7"/>
<path opacity="0.6" d="M252.259 232.806L243.485 234.957L244.002 237.575L252.92 236.152L252.259 232.806Z" fill="#D1D7D7"/>
<path opacity="0.6" d="M267.826 243.201L259.056 244.833L258.401 242.212L266.961 239.744L267.826 243.201Z" fill="#D1D7D7"/>
<path opacity="0.6" d="M255.143 227.822L263.739 225.935L264.077 228.289L258.149 229.254L258.428 230.441L255.92 230.74L255.143 227.822Z" fill="#D1D7D7"/>
<path opacity="0.6" d="M250.723 255.403L252.132 265.094L248.916 265.469L247.207 255.981L250.723 255.403Z" fill="#D1D7D7"/>
<path opacity="0.6" d="M241.556 219.075L255.569 188.388L260.761 213.603L256.04 214.032L256.356 215.865L248.759 217.034L249.073 218.268L241.556 219.075Z" fill="#D1D7D7"/>
<path opacity="0.6" d="M246.723 220.951L249.854 220.305L251.492 230.684L247.947 231.617L246.723 220.951Z" fill="#D1D7D7"/>
<path opacity="0.6" d="M258.488 263.776L255.287 264.421L254.298 258.847L253.314 259.021L252.677 255.428L256.731 254.999L258.488 263.776Z" fill="#D1D7D7"/>
<path opacity="0.6" d="M262.626 262.939L271.755 260.858L270.188 257.76L261.859 259.615L262.626 262.939Z" fill="#D1D7D7"/>
<path opacity="0.6" d="M255.439 252.371L246.708 253.731L246.41 250.921L252.377 250.229L252.152 249.03L254.67 248.847L255.439 252.371Z" fill="#D1D7D7"/>
<path opacity="0.6" d="M254.593 225.441L253.383 219.092L256.412 218.544L256.951 222.255L258.059 222.028L258.568 224.574L254.593 225.441Z" fill="#D1D7D7"/>
<path opacity="0.6" d="M261.929 217.685L263.159 224.03L260.241 224.458L259.691 220.749L258.57 220.973L258.268 218.298L261.929 217.685Z" fill="#D1D7D7"/>
<path opacity="0.6" d="M257.463 237.548L266.06 235.661L266.397 238.015L260.469 238.98L260.729 240.022L258.27 240.778L257.463 237.548Z" fill="#D1D7D7"/>
<path opacity="0.6" d="M265.594 233.642L256.825 235.275L256.169 232.654L261.7 231.586L261.472 230.433L264.394 229.917L265.594 233.642Z" fill="#D1D7D7"/>
<path opacity="0.6" fill-rule="evenodd" clip-rule="evenodd" d="M636.186 275.56C635.031 274.945 634.708 273.728 634.717 272.32C634.725 270.912 636.112 269.821 638.177 269.658C639.711 269.538 640.486 271.143 640.783 271.976C640.896 272.292 640.935 272.627 640.897 272.963C640.82 273.649 640.564 274.852 639.73 275.359C638.528 276.089 637.341 276.175 636.186 275.56Z" fill="#D1D7D7"/>
<path opacity="0.6" fill-rule="evenodd" clip-rule="evenodd" d="M618.304 267.679L631.972 268.782L630.76 277.164L624.655 276.423L626.355 284.534L622.136 285.46L618.304 267.679Z" fill="#D1D7D7"/>
<path opacity="0.6" d="M605.126 286.103L599.253 284.962L600.385 277.178L606.193 277.981L605.126 286.103Z" fill="#D1D7D7"/>
<path opacity="0.6" d="M603.856 294.696L598.402 293.65L599.189 287.314L604.678 288.494L603.856 294.696Z" fill="#D1D7D7"/>
<path opacity="0.6" d="M538.769 355.598L539.64 361.138L532.869 362.725L531.548 357.012L538.769 355.598Z" fill="#D1D7D7"/>
<path opacity="0.6" d="M547.087 353.593L548.203 359.109L542.556 360.554L541.505 354.906L547.087 353.593Z" fill="#D1D7D7"/>
<path opacity="0.6" d="M406.014 399.726L402.559 385.906L444.266 377.022L445.994 384.672L406.014 399.726Z" fill="#D1D7D7"/>
<path opacity="0.6" d="M597.969 397.995L599.477 387.644L589.676 387.233L588.24 396.964L597.969 397.995Z" fill="#D1D7D7"/>
<path opacity="0.6" d="M596.46 412.682L597.679 402.522L588.192 401.432L586.757 411.163L596.46 412.682Z" fill="#D1D7D7"/>
<path opacity="0.6" d="M576.169 409.651L578.443 392.069L568.956 390.979L567.521 400.71L573.138 401.274L572.201 408.989L576.169 409.651Z" fill="#D1D7D7"/>
<path opacity="0.6" fill-rule="evenodd" clip-rule="evenodd" d="M179.322 314.564L186.435 316.701L183.047 323.828L176.229 321.001L179.322 314.564Z" fill="#D1D7D7"/>
<path opacity="0.6" fill-rule="evenodd" clip-rule="evenodd" d="M173.245 328.76L179.571 331.81L175.362 340.802L170.263 336.147L173.245 328.76Z" fill="#D1D7D7"/>
<path opacity="0.6" d="M388.885 72.006L385.42 57.4546L401.574 57.1421L405.169 68.1949L388.885 72.006Z" fill="#D1D7D7"/>
<path opacity="0.6" d="M427.113 125.941L417.734 140.01L429.291 143.025L430.966 140.01L427.113 125.941Z" fill="#D1D7D7"/>
<g opacity="0.6">
<path d="M452.891 31.2134L452.347 37.6159L441.533 36.5345L443.047 29.8299L452.891 31.2134Z" fill="#D1D7D7"/>
<path d="M443.439 27.0783L443.242 22.1555L454.466 22.5493L453.58 28.6535L443.439 27.0783Z" fill="#D1D7D7"/>
</g>
<path opacity="0.6" d="M449.841 70.4336L438.556 73.8882L437.635 96.6889L447.308 97.8404L449.841 70.4336Z" fill="#D1D7D7"/>
<path opacity="0.6" fill-rule="evenodd" clip-rule="evenodd" d="M798.314 238.933C797.594 237.534 798.109 236.11 799.082 234.725C800.054 233.339 802.171 233.211 804.324 234.464C805.922 235.395 805.589 237.512 805.312 238.539C805.207 238.929 805.016 239.286 804.749 239.592C804.202 240.217 803.126 241.231 801.954 241.161C800.266 241.059 799.036 240.331 798.314 238.933Z" fill="#D1D7D7"/>
<path opacity="0.6" fill-rule="evenodd" clip-rule="evenodd" d="M790.037 195.553C789.546 194.6 789.896 193.628 790.56 192.684C791.223 191.739 792.667 191.652 794.134 192.506C795.224 193.141 794.997 194.585 794.808 195.285C794.737 195.551 794.607 195.795 794.424 196.003C794.052 196.429 793.318 197.121 792.519 197.073C791.368 197.004 790.528 196.507 790.037 195.553Z" fill="#D1D7D7"/>
<path opacity="0.6" d="M759.532 71.2241L764.075 62.8961L776.643 66.833L772.857 75.3124L759.532 71.2241Z" fill="#D1D7D7"/>
<path opacity="0.6" d="M756.923 77.2973L758.402 74.2723L768.418 77.2301L766.536 81.3307L756.923 77.2973Z" fill="#D1D7D7"/>
<path opacity="0.6" d="M659.936 189.468L672.737 191.484L669.668 176.754L659.673 178.245L659.936 189.468Z" fill="#D1D7D7"/>
<path opacity="0.6" d="M781.488 97.6866L775.705 95.0884L767.91 110.735L782.661 117.55L785.259 111.599L776.627 108.163L781.488 97.6866Z" fill="#D1D7D7"/>
<path opacity="0.6" d="M781.21 105.723L783.976 100.359L788.753 102.79L786.407 107.819L781.21 105.723Z" fill="#D1D7D7"/>
<path opacity="0.6" d="M780.395 146.008L789.146 127.267L793.109 128.671L789.724 135.523L796.907 137.009L794.595 142.706L798.063 142.789L795.503 148.403L780.395 146.008Z" fill="#D1D7D7"/>
<path opacity="0.6" d="M792.945 79.2458L799.211 65.8446L805.415 67.892L801.755 76.8261L808.393 79.0596L806.16 83.8369L792.945 79.2458Z" fill="#D1D7D7"/>
<path opacity="0.6" d="M810.379 85.326L812.674 80.5487L819.499 82.7202L823.532 73.9722L826.386 80.3626L822.291 89.2346L810.379 85.326Z" fill="#D1D7D7"/>
<path opacity="0.6" d="M806.966 74.9648L809.262 69.6912L819.499 73.4137L817.203 78.191L806.966 74.9648Z" fill="#D1D7D7"/>
<path opacity="0.6" d="M746.466 72.0484L755.077 51.9898L749.616 50.4146L741.215 69.6329L746.466 72.0484Z" fill="#D1D7D7"/>
<path opacity="0.6" d="M689.044 194.183L686.012 174.726L692.75 176.242L695.025 170.345L701.342 171.609L691.234 194.773L689.044 194.183Z" fill="#D1D7D7"/>
<path opacity="0.6" d="M753.114 208.939L757.631 198.754L762.502 199.817L758.516 210.09L753.114 208.939Z" fill="#D1D7D7"/>
<path opacity="0.6" d="M761.882 210.887L766.133 200.791L771.092 201.854L767.018 211.773L761.882 210.887Z" fill="#D1D7D7"/>
<path opacity="0.6" d="M773.302 196.833L760.057 193.971L763.119 187.049L776.629 189.911L773.302 196.833Z" fill="#D1D7D7"/>
<path opacity="0.6" d="M738.894 169.679L742.554 168.282L732.771 164.688L723.32 188.314L733.503 191.375L732.505 185.718L738.894 169.679Z" fill="#D1D7D7"/>
<path opacity="0.6" d="M799.116 173.008L801.527 167.607L813.775 170.983L810.399 177.83L799.116 173.008Z" fill="#D1D7D7"/>
<path opacity="0.6" d="M803.359 164.232L805.191 160.278L817.15 161.531L814.45 167.607L803.359 164.232Z" fill="#D1D7D7"/>
<path opacity="0.6" d="M817.054 172.719L821.201 162.014L829.012 163.171L825.444 174.262L817.054 172.719Z" fill="#D1D7D7"/>
<path opacity="0.6" d="M831.906 168.186L833.063 164.039L839.717 163.943L837.595 168.765L831.906 168.186Z" fill="#D1D7D7"/>
<path opacity="0.6" d="M835.067 249.411L831.424 240.688L839.263 236.823L843.238 245.546L835.067 249.411Z" fill="#D1D7D7"/>
<path opacity="0.6" d="M822.48 254.379L819.057 246.319L812.211 250.515L815.303 257.802L822.48 254.379Z" fill="#D1D7D7"/>
<path opacity="0.6" d="M824.799 259.9L816.959 262.881L820.382 270.279L827.78 267.519L824.799 259.9Z" fill="#D1D7D7"/>
<path opacity="0.6" d="M699.626 245.463L697.156 232.185L712.184 233.832L713.419 246.801L699.626 245.463Z" fill="#D1D7D7"/>
<path opacity="0.6" d="M697.134 226.695L693.999 211.951L702.01 214.157L703.867 227.391L697.134 226.695Z" fill="#D1D7D7"/>
<path opacity="0.6" d="M753.433 283.706L760.458 269.135L767.744 269.135L770.346 280.583L753.433 283.706Z" fill="#D1D7D7"/>
<path opacity="0.6" d="M724.627 289.691L719.273 262.407L742.638 263.704L731.672 288.719L724.627 289.691Z" fill="#D1D7D7"/>
<path opacity="0.6" d="M711.762 305.645L715.042 325.462L725.155 303.459L711.762 305.645Z" fill="#D1D7D7"/>
<path opacity="0.6" d="M693.374 298.714L690.675 285.834L678.04 288.532L680.003 300.8L693.374 298.714Z" fill="#D1D7D7"/>
<path opacity="0.6" d="M694.331 302.689L682.064 305.02L683.904 316.674L696.785 315.202L694.331 302.689Z" fill="#D1D7D7"/>
<path opacity="0.6" d="M691.961 334.871L665.352 332.423L665.516 340.911L690.981 343.36L691.961 334.871Z" fill="#D1D7D7"/>
<path opacity="0.6" d="M692.02 421.26L690.061 411.955L697.897 410.16L699.693 419.465L692.02 421.26Z" fill="#D1D7D7"/>
<path opacity="0.6" d="M702.898 418.941L701.429 409.8L708.938 408.494L710.734 417.146L702.898 418.941Z" fill="#D1D7D7"/>
<path opacity="0.6" d="M663.393 417.636L671.229 416.166L673.841 424.982L665.026 426.451L663.393 417.636Z" fill="#D1D7D7"/>
<path opacity="0.6" d="M711.819 420.227L689.128 425.124L691.087 433.123L713.451 428.389L711.819 420.227Z" fill="#D1D7D7"/>
<path opacity="0.6" d="M674.984 432.001L666.005 433.96L668.617 443.102L677.269 440.979L674.984 432.001Z" fill="#D1D7D7"/>
<path opacity="0.6" d="M718.05 431.503L691.605 437.87L693.564 447.828L725.07 441.788L717.319 406.142L713.074 406.958L718.05 431.503Z" fill="#D1D7D7"/>
<path opacity="0.6" d="M765.393 60.0209L767.208 55.853L774.266 58.2059L772.72 62.5754L765.393 60.0209Z" fill="#D1D7D7"/>
<path opacity="0.6" d="M3.65031 289.913L-5.27927 292.13L-8.5749 280.428L0.253477 277.664L3.65031 289.913Z" fill="#D1D7D7"/>
<path opacity="0.6" d="M-0.0902662 275.039L-7.46413 277.251L-9.1298 271.686L-1.75077 269.119L-0.0902662 275.039Z" fill="#D1D7D7"/>
<path opacity="0.6" d="M14.9702 283.956L9.13486 257.894L17.796 255.667L18.9592 262.804L22.9593 261.595L24.1396 267.556L17.3889 269.117L18.3956 274.563L28.026 272.078L29.0665 277.282L23.89 278.474L24.4042 282.525L14.9702 283.956Z" fill="#D1D7D7"/>
<path opacity="0.6" d="M118.293 384.818L122.547 375.218L118.05 373.273L113.675 382.752L118.293 384.818Z" fill="#D1D7D7"/>
<path opacity="0.6" d="M129.352 382.509L132.269 376.068L138.467 378.742L135.55 385.547L129.352 382.509Z" fill="#D1D7D7"/>
<path opacity="0.6" d="M135.49 346.437L138.953 338.76L131.67 335.658L128.001 342.262L129.595 348.13L135.49 346.437Z" fill="#D1D7D7"/>
<path opacity="0.6" d="M136.827 328.907L134.478 334.208L139.695 336.643L142.068 331.195L136.827 328.907Z" fill="#D1D7D7"/>
<path opacity="0.6" d="M79.6297 267.667L67.7588 264.522L72.6289 254.984L83.3838 257.724L79.6297 267.667Z" fill="#D1D7D7"/>
<path opacity="0.6" d="M93.0225 271.218L95.1532 260.971L101.951 262.797L103.879 273.856L93.0225 271.218Z" fill="#D1D7D7"/>
<path opacity="0.6" d="M129.002 272.377L130.579 257.875L124.694 257.245L123.118 271.326L129.002 272.377Z" fill="#D1D7D7"/>
<path opacity="0.6" d="M122.554 277.75L122.961 273.177L119.611 272.408L119.159 277.071L122.554 277.75Z" fill="#D1D7D7"/>
<path opacity="0.6" d="M128.706 274.152L124.86 273.457L124.272 278.158L128.172 279.012L128.706 274.152Z" fill="#D1D7D7"/>
<path opacity="0.6" d="M82.775 268.58L85.21 261.579L91.3991 263.304L89.6743 270.406L82.775 268.58Z" fill="#D1D7D7"/>
<path opacity="0.6" d="M122.58 428.736L135.92 425.746L134.54 421.03L126.26 422.64L125.455 420.34L129.48 419.42L128.905 416.545L120.74 418.155L122.58 428.736Z" fill="#D1D7D7"/>
<path opacity="0.6" d="M140.992 291.718L125.435 288.235L124.583 291.718L127.447 292.337L126.906 294.736L139.599 297.523L140.992 291.718Z" fill="#D1D7D7"/>
<path opacity="0.6" d="M2.31567 330.653L11.2968 331.006L15.6993 347.911L9.18358 358.653L2.31567 330.653Z" fill="#D1D7D7"/>
<path opacity="0.6" d="M142.202 241.596L143.276 232.756L149.471 233.665L148.397 242.339L142.202 241.596Z" fill="#D1D7D7"/>
<path opacity="0.6" fill-rule="evenodd" clip-rule="evenodd" d="M147.095 230.069C147.028 230.812 146.46 231.251 145.718 231.558C144.976 231.866 144.095 231.379 143.552 230.33C143.148 229.551 143.82 228.788 144.192 228.447C144.334 228.317 144.501 228.223 144.686 228.168C145.063 228.057 145.752 227.924 146.204 228.25C146.854 228.72 147.162 229.325 147.095 230.069Z" fill="#D1D7D7"/>
<path opacity="0.6" d="M61.464 227.364L48.8573 230.316L50.4531 238.934L63.0598 235.742L61.464 227.364Z" fill="#D1D7D7"/>
<path opacity="0.6" d="M51.5474 207.626L53.2772 216.995L71.1521 213.103L69.7106 204.31L51.5474 207.626Z" fill="#D1D7D7"/>
<path opacity="0.6" d="M70.0863 304.557L68.5603 295.474L72.5432 294.545L73.4229 297.969L71.685 298.09L73.2111 303.976L70.0863 304.557Z" fill="#D1D7D7"/>
<path opacity="0.6" d="M76.0706 303.84L73.9367 294.149L76.7243 293.494L77.941 299.088L80.2422 298.433L81.3652 302.586L76.0706 303.84Z" fill="#D1D7D7"/>
<path opacity="0.6" d="M79.2003 296.022L78.4199 292.882L82.6634 291.585L85.527 301.519L82.6458 302.193L81.1109 295.495L79.2003 296.022Z" fill="#D1D7D7"/>
<path opacity="0.6" d="M87.1507 301.289L84.3996 289.172L86.7692 288.382L88.4785 295.769L90.0313 295.264L91.3789 300.053L87.1507 301.289Z" fill="#D1D7D7"/>
<path opacity="0.6" d="M89.7578 293.484L88.7045 290.064L93.4206 289.132L96.221 299.182L92.8346 299.762L91.4642 293.143L89.7578 293.484Z" fill="#D1D7D7"/>
<path opacity="0.6" d="M78.693 319.511L76.4773 310.858L79.2364 310.314L81.3833 319.016L78.693 319.511Z" fill="#D1D7D7"/>
<path opacity="0.6" d="M86.5616 317.686L83.7931 318.257L82.7062 314.244L81.243 314.495L80.7414 312.405L82.3717 312.028L81.7915 309.677L84.2538 309.104L86.5616 317.686Z" fill="#D1D7D7"/>
<path opacity="0.6" d="M87.6666 317.534L85.9523 308.975L88.7492 308.297L89.5955 313.278L94.5891 312.112L95.6657 315.502L87.6666 317.534Z" fill="#D1D7D7"/>
<path opacity="0.6" d="M91.4737 311.081L90.9945 308.044L93.3677 307.451L94.0967 310.556L91.4737 311.081Z" fill="#D1D7D7"/>
<path opacity="0.6" d="M94.8667 306.813L97.2315 315.336L100.071 314.445L98.4264 308.763L103.342 307.661L102.41 304.949L94.8667 306.813Z" fill="#D1D7D7"/>
<path opacity="0.6" d="M101.558 313.965L100.463 309.823L103.853 309.229L104.822 313.255L101.558 313.965Z" fill="#D1D7D7"/>
<path opacity="0.6" d="M106.683 312.89L104.427 304.645L107.256 303.924L107.818 306.425L110.191 305.916L110.804 308.232L108.27 308.793L109.102 312.268L106.683 312.89Z" fill="#D1D7D7"/>
<path opacity="0.6" d="M59.6826 302.318L67.375 300.779L68.1934 304.869L61.0463 306.603L59.6826 302.318Z" fill="#D1D7D7"/>
<path opacity="0.6" d="M62.993 300.137L62.0383 296.378L65.7774 295.832L66.81 299.474L62.993 300.137Z" fill="#D1D7D7"/>
<path opacity="0.6" d="M61.9803 300.137L61.2399 296.943L57.6761 297.352L58.6891 300.897L61.9803 300.137Z" fill="#D1D7D7"/>
<path opacity="0.6" d="M106.857 289.276L96.6521 291.42L96.0675 288.498L105.863 286.336L106.857 289.276Z" fill="#D1D7D7"/>
<path opacity="0.6" d="M98.3276 297.262L97.2171 293.231L103.722 291.828L104.813 295.762L98.3276 297.262Z" fill="#D1D7D7"/>
<path opacity="0.6" d="M58.8463 152.728L46.1761 155.112L44.7101 170.377L50.9062 169.068L51.7428 161.696L60.2235 160.1L58.8463 152.728Z" fill="#D1D7D7"/>
<path opacity="0.6" d="M105.537 143.934L87.9166 147.413L89.5536 155.052L94.874 161.464L99.4282 160.69L105.537 143.934Z" fill="#D1D7D7"/>
<path opacity="0.6" d="M63.4139 152.501L84.0448 148.492L84.5061 155.871L64.4525 159.145L63.4139 152.501Z" fill="#D1D7D7"/>
<path opacity="0.6" fill-rule="evenodd" clip-rule="evenodd" d="M54.7004 137.212C51.1716 135.333 50.1846 131.612 50.2137 127.311C50.2371 123.009 54.4748 119.675 60.7858 119.176C65.4731 118.808 67.8417 123.713 68.7501 126.26C69.0947 127.226 69.2144 128.249 69.098 129.274C68.8612 131.371 68.081 135.048 65.5311 136.598C61.8578 138.829 58.2324 139.09 54.7004 137.212Z" fill="#D1D7D7"/>
<path opacity="0.6" fill-rule="evenodd" clip-rule="evenodd" d="M56.8956 124.915C58.5104 123.675 60.444 124.001 62.4324 124.92C64.4228 125.837 65.0761 128.505 63.9782 131.537C63.1617 133.788 60.3881 133.854 59.0155 133.738C58.4949 133.695 57.9952 133.535 57.5441 133.265C56.6216 132.713 55.0807 131.577 54.899 130.068C54.6381 127.894 55.2806 126.158 56.8956 124.915Z" fill="#D1D7D7"/>
<path opacity="0.6" d="M134.435 181.39L122.615 180.237L121.75 190.616L133.282 191.481L134.435 181.39Z" fill="#D1D7D7"/>
<path opacity="0.6" d="M108.3 178.98L119.51 179.889L118.702 186.352L107.795 185.443L108.3 178.98Z" fill="#D1D7D7"/>
<path opacity="0.6" d="M126.895 146.181L125.667 140.209L132.131 138.573L133.685 144.791L126.895 146.181Z" fill="#D1D7D7"/>
<path opacity="0.6" d="M136.712 143.973L135.403 138.245L141.867 136.773L143.094 142.827L136.712 143.973Z" fill="#D1D7D7"/>
<path opacity="0.6" d="M110.213 118.674L107.577 105.622L113.978 104.743L116.362 117.544L110.213 118.674Z" fill="#D1D7D7"/>
<path opacity="0.6" d="M80.499 99.0972L90.9541 96.7874L92.413 104.446L76.244 108.58L75.5146 104.446L81.2284 103.109L80.499 99.0972Z" fill="#D1D7D7"/>
<path opacity="0.6" d="M92.8993 107.729L84.754 109.431L86.5775 117.819L94.6012 115.996L92.8993 107.729Z" fill="#D1D7D7"/>
<path opacity="0.6" d="M65.0688 74.2904L67.9502 67.8875L75.527 70.8755L72.539 77.7053L65.0688 74.2904Z" fill="#D1D7D7"/>
<path opacity="0.6" d="M75.6339 79.1994L78.942 72.7964L85.6652 76.2113L82.7838 82.4009L75.6339 79.1994Z" fill="#D1D7D7"/>
<path opacity="0.6" d="M76.3808 86.5627L68.3771 83.1478L65.7092 89.2307L73.4995 92.9657L76.3808 86.5627Z" fill="#D1D7D7"/>
<path opacity="0.6" d="M65.389 82.0806L58.8793 78.8792L56.4248 84.4284L63.0412 87.7366L65.389 82.0806Z" fill="#D1D7D7"/>
<path opacity="0.6" d="M76.448 28.9971L68.982 30.7617L72.2399 36.0558L75.7692 52.4809L81.4705 51.3949L76.448 28.9971Z" fill="#D1D7D7"/>
<path opacity="0.6" d="M97.096 61.5007L95.2827 52.8874L99.2493 52.0941L101.063 60.934L97.096 61.5007Z" fill="#D1D7D7"/>
<path opacity="0.6" d="M102.649 60.3674L101.629 55.7208L105.369 55.0408L106.729 59.8007L102.649 60.3674Z" fill="#D1D7D7"/>
<path opacity="0.6" d="M108.203 59.6874L105.596 48.3542L109.789 48.1275L112.283 58.7807L108.203 59.6874Z" fill="#D1D7D7"/>
<path opacity="0.6" d="M-1.92596 5.00507L-13.2651 7.23854L-12.4061 12.5645L-7.59555 11.8773L-5.19027 22.1857L1.51017 21.8421L-1.92596 5.00507Z" fill="#D1D7D7"/>
<path opacity="0.6" d="M70.9825 13.0534L58.1408 15.3094L55.3642 4.89716L68.7265 1.94702L70.9825 13.0534Z" fill="#D1D7D7"/>
<path opacity="0.6" d="M17.5703 29.8076L23.2023 16.8641L18.1632 15.6784L12.8276 28.1279L17.5703 29.8076Z" fill="#D1D7D7"/>
<path opacity="0.6" d="M13.5193 19.8282L17.6691 9.94763L13.6181 7.57629L9.27063 17.9509L13.5193 19.8282Z" fill="#D1D7D7"/>
<path opacity="0.6" d="M9.86343 10.1453L12.8276 2.04322L9.56701 -0.130493L6.50403 8.268L9.86343 10.1453Z" fill="#D1D7D7"/>
<path opacity="0.6" fill-rule="evenodd" clip-rule="evenodd" d="M134.225 52.6398C133.116 53.6867 131.652 53.5908 130.101 53.0572C128.549 52.5255 127.859 50.5884 128.446 48.2468C128.883 46.5078 130.944 46.2483 131.975 46.2298C132.366 46.2228 132.751 46.3039 133.107 46.4707C133.836 46.8114 135.07 47.5406 135.32 48.6507C135.68 50.2497 135.333 51.5917 134.225 52.6398Z" fill="#D1D7D7"/>
</g>
<rect x="-2.93262" y="405.864" width="6" height="20" transform="rotate(24 -2.93262 405.864)" fill="white"/>
<path d="M4.78246 408.205L0.821618 409.725L-5.68616 424.342L-4.16574 428.303" stroke="#D1D7D7" stroke-width="2" stroke-linecap="round" stroke-linejoin="round"/>
<rect x="711.364" y="370.662" width="6" height="20" transform="rotate(-12 711.364 370.662)" fill="white"/>
<rect x="717.233" y="369.415" width="6" height="20" transform="rotate(-12 717.233 369.415)" fill="white"/>
<path d="M709.2 370.1L712.758 372.411L716.085 388.061L713.774 391.619" stroke="#D1D7D7" stroke-width="2" stroke-linecap="round" stroke-linejoin="round"/>
<path d="M724.85 366.774L722.539 370.332L725.866 385.982L729.424 388.293" stroke="#D1D7D7" stroke-width="2" stroke-linecap="round" stroke-linejoin="round"/>
<path d="M118.795 133.905L-26.3799 458.355C-36.2188 480.343 -51.5994 499.4 -71.0159 513.659L-195.584 605.137" stroke="#D1D7D7" stroke-width="5"/>
<path d="M410.181 199L397.953 142M358.804 -40.5L384.492 79.25" stroke="#D1D7D7" stroke-width="5"/>
<path d="M278.379 -186L363.307 209.5" stroke="#D1D7D7" stroke-width="5"/>
<path d="M452.497 105L311 419.881" stroke="#D1D7D7" stroke-width="5"/>
<path d="M907.958 -83.4626L716.598 342.379" stroke="#D1D7D7" stroke-width="5"/>
<path d="M772.183 220.576L244.5 109.449" stroke="#D1D7D7" stroke-width="5"/>
<path d="M409 11.59L574.75 28.8517" stroke="#D1D7D7" stroke-width="5"/>
<path d="M447.35 153.385L537.35 -695" stroke="#D1D7D7" stroke-width="5"/>
<path d="M419 57.4546L432.759 -72.2448" stroke="#D1D7D7" stroke-width="5"/>
<path d="M408.91 22.44L262.457 53.2861C251.612 55.5704 240.359 54.999 229.801 51.6278L77.4999 3" stroke="#D1D7D7" stroke-width="5"/>
<path d="M-172.778 -305.187L44.4391 -63.0427C60.5251 -45.1107 71.6784 -23.3087 76.8071 0.228709L106.579 136.865" stroke="#D1D7D7" stroke-width="5"/>
<path d="M-8.99988 161.106L421.5 70.4335" stroke="#D1D7D7" stroke-width="5"/>
<path d="M318.47 -411L436.883 141" stroke="#D1D7D7" stroke-width="5"/>
<path d="M-103.651 -234.47L22.2328 348.354" stroke="#D1D7D7" stroke-width="5" stroke-linecap="round"/>
<path d="M732.254 439.66L662.701 109.433C660.417 98.5873 660.988 87.3344 664.36 76.7761L773.612 -265.399" stroke="#D1D7D7" stroke-width="5"/>
<path d="M861.53 651.298L763.313 541.81C755.912 533.56 750.78 523.529 748.42 512.699L714.966 359.164" stroke="#D1D7D7" stroke-width="5"/>
<path fill-rule="evenodd" clip-rule="evenodd" d="M199 305C202.314 305 205 302.314 205 299C205 295.686 202.314 293 199 293C195.686 293 193 295.686 193 299C193 302.314 195.686 305 199 305Z" fill="white" stroke="#D1D7D7" stroke-width="3"/>
<path fill-rule="evenodd" clip-rule="evenodd" d="M580 434C583.314 434 586 431.314 586 428C586 424.686 583.314 422 580 422C576.686 422 574 424.686 574 428C574 431.314 576.686 434 580 434Z" fill="white" stroke="#D1D7D7" stroke-width="3"/>
<path fill-rule="evenodd" clip-rule="evenodd" d="M447 161C451.418 161 455 157.418 455 153C455 148.582 451.418 145 447 145C442.582 145 439 148.582 439 153C439 157.418 442.582 161 447 161Z" fill="white" stroke="#D1D7D7" stroke-width="4"/>
<path fill-rule="evenodd" clip-rule="evenodd" d="M712.75 358.378C717.169 358.378 720.75 354.797 720.75 350.378C720.75 345.96 717.169 342.378 712.75 342.378C708.332 342.378 704.75 345.96 704.75 350.378C704.75 354.797 708.332 358.378 712.75 358.378Z" fill="white" stroke="#D1D7D7" stroke-width="4"/>
<path fill-rule="evenodd" clip-rule="evenodd" d="M837.837 80.4614C842.256 80.4614 845.837 76.8797 845.837 72.4614C845.837 68.0431 842.256 64.4614 837.837 64.4614C833.419 64.4614 829.837 68.0431 829.837 72.4614C829.837 76.8797 833.419 80.4614 837.837 80.4614Z" fill="white" stroke="#D1D7D7" stroke-width="4"/>
<path fill-rule="evenodd" clip-rule="evenodd" d="M244 116C248.418 116 252 112.418 252 108C252 103.582 248.418 99.9999 244 99.9999C239.582 99.9999 236 103.582 236 108C236 112.418 239.582 116 244 116Z" fill="white" stroke="#D1D7D7" stroke-width="4"/>
<path fill-rule="evenodd" clip-rule="evenodd" d="M311 427C315.418 427 319 423.418 319 419C319 414.582 315.418 411 311 411C306.582 411 303 414.582 303 419C303 423.418 306.582 427 311 427Z" fill="white" stroke="#D1D7D7" stroke-width="4"/>
</g>
<path d="M281 156.002L257.951 151.392C255.842 150.97 253.987 152.84 254.426 154.945L263.053 196.355C263.319 197.634 264.382 198.593 265.681 198.728L399.367 212.574C401.402 212.784 402.633 214.925 401.793 216.79L368.705 290.218C367.865 292.082 369.094 294.221 371.127 294.435L587.983 317.185C589.644 317.359 591.127 316.144 591.283 314.482L592.5 301.502" stroke="#00CCBC" stroke-width="5" stroke-linecap="round"/>
<g filter="url(#filter0_d_1932_60043)">
<path d="M453.908 299.954C453.908 309.317 446.317 316.908 436.954 316.908C427.591 316.908 420 309.317 420 299.954C420 290.591 427.591 283 436.954 283C446.317 283 453.908 290.591 453.908 299.954Z" fill="#00CCBC"/>
<path d="M436.954 317.12C446.434 317.12 454.12 309.434 454.12 299.954C454.12 290.474 446.434 282.788 436.954 282.788C427.474 282.788 419.788 290.474 419.788 299.954C419.788 309.434 427.474 317.12 436.954 317.12Z" stroke="black" stroke-opacity="0.04" stroke-width="0.423849"/>
</g>
<circle cx="436.954" cy="299.954" r="15.6824" stroke="white" stroke-width="2.54309"/>
<path d="M440.84 291.98H444.583V293.669H441.552L441.287 293.913L442.691 298.775C443.342 298.802 443.939 298.992 444.482 299.345C445.038 299.697 445.472 300.159 445.784 300.728C446.109 301.298 446.272 301.922 446.272 302.6C446.272 303.278 446.102 303.909 445.763 304.492C445.424 305.075 444.963 305.536 444.38 305.875C443.797 306.215 443.159 306.384 442.467 306.384C441.776 306.384 441.138 306.215 440.555 305.875C439.972 305.536 439.504 305.075 439.151 304.492C438.812 303.909 438.643 303.271 438.643 302.58C438.643 301.793 438.86 301.081 439.294 300.443C439.728 299.806 440.297 299.345 441.003 299.06L440.738 298.104L435.184 301.807C435.238 302.064 435.265 302.322 435.265 302.58C435.265 303.271 435.089 303.909 434.736 304.492C434.397 305.075 433.936 305.536 433.353 305.875C432.77 306.215 432.132 306.384 431.441 306.384C430.749 306.384 430.111 306.215 429.528 305.875C428.945 305.536 428.484 305.075 428.145 304.492C427.806 303.909 427.636 303.271 427.636 302.58C427.636 301.888 427.806 301.25 428.145 300.667C428.484 300.084 428.945 299.623 429.528 299.284C430.111 298.931 430.749 298.755 431.441 298.755C431.549 298.755 431.658 298.762 431.766 298.775L433.048 296.212H431.013V294.523H434.411L435.265 295.378V296.212H440.189L439.395 293.424L440.84 291.98ZM433.394 299.304C433.814 299.548 434.174 299.86 434.472 300.24L437.971 297.921H434.085L433.394 299.304ZM433.556 302.58C433.556 301.996 433.346 301.501 432.926 301.094C432.519 300.674 432.024 300.464 431.441 300.464C430.857 300.464 430.356 300.674 429.935 301.094C429.528 301.501 429.325 301.996 429.325 302.58C429.325 303.163 429.528 303.665 429.935 304.085C430.356 304.492 430.857 304.695 431.441 304.695C432.024 304.695 432.519 304.492 432.926 304.085C433.346 303.665 433.556 303.163 433.556 302.58ZM442.467 304.695C443.051 304.695 443.546 304.492 443.953 304.085C444.373 303.665 444.583 303.163 444.583 302.58C444.583 301.996 444.373 301.501 443.953 301.094C443.546 300.674 443.051 300.464 442.467 300.464C441.884 300.464 441.382 300.674 440.962 301.094C440.555 301.501 440.352 301.996 440.352 302.58C440.352 303.163 440.555 303.665 440.962 304.085C441.382 304.492 441.884 304.695 442.467 304.695Z" fill="white"/>
<g filter="url(#filter1_d_1932_60043)">
<path d="M282.259 112C273.823 112 267 118.633 267 126.835C267 137.961 282.259 147.603 282.259 147.603C282.259 147.603 297.517 137.961 297.517 126.835C297.517 118.633 290.694 112 282.259 112Z" fill="#9C006D"/>
<circle cx="282.259" cy="153.961" r="2.96694" fill="white" stroke="#9C006D" stroke-width="1.6954"/>
</g>
<path d="M285.27 126.792L283.784 128.277L288.83 133.973L287.548 135.113L282.584 129.477L276.928 135.133L275.728 133.953L281.465 128.216L280.285 127.016L277.966 129.315L274.629 123.659L275.769 119.224L282.665 127.016L284.069 125.591L282.93 124.452V123.252L286.755 119.529L287.935 120.729L284.741 123.862L285.27 124.391L288.443 121.238L289.644 122.418L286.47 125.591L286.918 126.059L290.152 122.926L291.332 124.127L287.508 127.85H286.328L285.27 126.792ZM276.623 122.743L276.44 123.394L278.291 126.629L279.207 125.734L276.623 122.743Z" fill="white"/>
<g style="mix-blend-mode:multiply">
<path fill-rule="evenodd" clip-rule="evenodd" d="M588.269 317.539C601.121 317.539 611.539 307.121 611.539 294.269C611.539 281.418 601.121 271 588.269 271C575.418 271 565 281.418 565 294.269C565 307.121 575.418 317.539 588.269 317.539Z" fill="#33D0C4" fill-opacity="0.183622"/>
<path fill-rule="evenodd" clip-rule="evenodd" d="M588.269 317.539C601.121 317.539 611.539 307.121 611.539 294.269C611.539 281.418 601.121 271 588.269 271C575.418 271 565 281.418 565 294.269C565 307.121 575.418 317.539 588.269 317.539Z" fill="white" fill-opacity="0.2"/>
<path fill-rule="evenodd" clip-rule="evenodd" d="M588.269 317.539C601.121 317.539 611.539 307.121 611.539 294.269C611.539 281.418 601.121 271 588.269 271C575.418 271 565 281.418 565 294.269C565 307.121 575.418 317.539 588.269 317.539Z" fill="#2AB2FF" fill-opacity="0.04"/>
</g>
<g filter="url(#filter2_d_1932_60043)">
<path fill-rule="evenodd" clip-rule="evenodd" d="M588.269 305.904C594.695 305.904 599.904 300.695 599.904 294.269C599.904 287.844 594.695 282.635 588.269 282.635C581.844 282.635 576.635 287.844 576.635 294.269C576.635 300.695 581.844 305.904 588.269 305.904Z" fill="#09B5F3"/>
<path d="M598.208 294.269C598.208 299.759 593.758 304.209 588.269 304.209C582.78 304.209 578.33 299.759 578.33 294.269C578.33 288.78 582.78 284.33 588.269 284.33C593.758 284.33 598.208 288.78 598.208 294.269Z" stroke="white" stroke-width="3.39079"/>
</g>
<rect width="434" height="87" transform="matrix(-4.37114e-08 1 1 4.37114e-08 0 1)" fill="url(#paint0_linear_1932_60043)"/>
</g>
<defs>
<filter id="filter0_d_1932_60043" x="416.185" y="280.033" width="41.5372" height="41.5372" filterUnits="userSpaceOnUse" color-interpolation-filters="sRGB">
<feFlood flood-opacity="0" result="BackgroundImageFix"/>
<feColorMatrix in="SourceAlpha" type="matrix" values="0 0 0 0 0 0 0 0 0 0 0 0 0 0 0 0 0 0 127 0" result="hardAlpha"/>
<feOffset dy="0.847698"/>
<feGaussianBlur stdDeviation="1.6954"/>
<feColorMatrix type="matrix" values="0 0 0 0 0 0 0 0 0 0 0 0 0 0 0 0 0 0 0.08 0"/>
<feBlend mode="normal" in2="BackgroundImageFix" result="effect1_dropShadow_1932_60043"/>
<feBlend mode="normal" in="SourceGraphic" in2="effect1_dropShadow_1932_60043" result="shape"/>
</filter>
<filter id="filter1_d_1932_60043" x="263" y="109" width="38.5171" height="53.7757" filterUnits="userSpaceOnUse" color-interpolation-filters="sRGB">
<feFlood flood-opacity="0" result="BackgroundImageFix"/>
<feColorMatrix in="SourceAlpha" type="matrix" values="0 0 0 0 0 0 0 0 0 0 0 0 0 0 0 0 0 0 127 0" result="hardAlpha"/>
<feOffset dy="1"/>
<feGaussianBlur stdDeviation="2"/>
<feColorMatrix type="matrix" values="0 0 0 0 0 0 0 0 0 0 0 0 0 0 0 0 0 0 0.08 0"/>
<feBlend mode="normal" in2="BackgroundImageFix" result="effect1_dropShadow_1932_60043"/>
<feBlend mode="normal" in="SourceGraphic" in2="effect1_dropShadow_1932_60043" result="shape"/>
</filter>
<filter id="filter2_d_1932_60043" x="576.635" y="282.635" width="23.2693" height="24.9647" filterUnits="userSpaceOnUse" color-interpolation-filters="sRGB">
<feFlood flood-opacity="0" result="BackgroundImageFix"/>
<feColorMatrix in="SourceAlpha" type="matrix" values="0 0 0 0 0 0 0 0 0 0 0 0 0 0 0 0 0 0 127 0" result="hardAlpha"/>
<feOffset dy="1.6954"/>
<feColorMatrix type="matrix" values="0 0 0 0 0 0 0 0 0 0.356863 0 0 0 0 0.486275 0 0 0 0.23 0"/>
<feBlend mode="normal" in2="BackgroundImageFix" result="effect1_dropShadow_1932_60043"/>
<feBlend mode="normal" in="SourceGraphic" in2="effect1_dropShadow_1932_60043" result="shape"/>
</filter>
<linearGradient id="paint0_linear_1932_60043" x1="217" y1="0" x2="217" y2="87" gradientUnits="userSpaceOnUse">
<stop stop-color="white"/>
<stop offset="1" stop-color="white" stop-opacity="0"/>
</linearGradient>
<clipPath id="clip0_1932_60043">
<rect width="835" height="434" fill="white"/>
</clipPath>
</defs>
</svg>
